<svg width="71" height="70" viewBox="0 0 71 70" fill="none" xmlns="http://www.w3.org/2000/svg">
<ellipse cx="33" cy="34" rx="33" ry="34" fill="#760B2F"/>
<ellipse cx="38" cy="36" rx="33" ry="34" fill="#F51E65"/>
<path d="M36.2478 55C35.5545 55 35.0078 54.8133 34.6078 54.44C34.2345 54.04 34.0478 53.5067 34.0478 52.84C34.0478 52.1467 34.2345 51.6267 34.6078 51.28C35.0078 50.9333 35.5545 50.76 36.2478 50.76H40.7278V31.12H43.2078L37.3278 34.68C36.8211 34.9733 36.3411 35.0933 35.8878 35.04C35.4611 34.96 35.0878 34.7733 34.7678 34.48C34.4745 34.16 34.2745 33.7867 34.1678 33.36C34.0611 32.9333 34.0878 32.5067 34.2478 32.08C34.4345 31.6267 34.7811 31.2533 35.2878 30.96L40.8078 27.64C41.3411 27.32 41.8745 27.0533 42.4078 26.84C42.9411 26.6 43.4345 26.48 43.8878 26.48C44.4478 26.48 44.9145 26.64 45.2878 26.96C45.6611 27.2533 45.8478 27.7467 45.8478 28.44V50.76H49.9278C50.6211 50.76 51.1545 50.9333 51.5278 51.28C51.9278 51.6267 52.1278 52.1467 52.1278 52.84C52.1278 53.5333 51.9278 54.0667 51.5278 54.44C51.1545 54.8133 50.6211 55 49.9278 55H36.2478Z" fill="white"/>
</svg>
