<svg width="71" height="70" viewBox="0 0 71 70" fill="none" xmlns="http://www.w3.org/2000/svg">
<ellipse cx="33" cy="34" rx="33" ry="34" fill="#760B2F"/>
<ellipse cx="38" cy="36" rx="33" ry="34" fill="#F51E65"/>
<path d="M35.3278 55C34.4745 55 33.8478 54.8133 33.4478 54.44C33.0745 54.04 32.8878 53.4667 32.8878 52.72C32.8878 52.2667 33.0078 51.8267 33.2478 51.4C33.4878 50.9733 33.8345 50.52 34.2878 50.04L42.3278 41.48C43.5545 40.2 44.4345 39.04 44.9678 38C45.5011 36.9333 45.7678 35.8667 45.7678 34.8C45.7678 33.4667 45.3411 32.4533 44.4878 31.76C43.6611 31.0667 42.4478 30.72 40.8478 30.72C39.9411 30.72 39.0345 30.8533 38.1278 31.12C37.2211 31.36 36.3011 31.7867 35.3678 32.4C34.8878 32.72 34.4345 32.8533 34.0078 32.8C33.6078 32.7467 33.2478 32.5733 32.9278 32.28C32.6345 31.9867 32.4345 31.6267 32.3278 31.2C32.2211 30.7733 32.2345 30.3467 32.3678 29.92C32.5278 29.4667 32.8478 29.08 33.3278 28.76C34.4745 27.9867 35.7545 27.4 37.1678 27C38.6078 26.6 40.0478 26.4 41.4878 26.4C43.5145 26.4 45.2211 26.7067 46.6078 27.32C47.9945 27.9333 49.0478 28.8267 49.7678 30C50.4878 31.1733 50.8478 32.6 50.8478 34.28C50.8478 35.4 50.6611 36.4933 50.2878 37.56C49.9411 38.6267 49.3945 39.7067 48.6478 40.8C47.9278 41.8933 46.9811 43.0533 45.8078 44.28L38.2878 52.12V50.76H50.0478C50.7678 50.76 51.3145 50.9333 51.6878 51.28C52.0611 51.6267 52.2478 52.1467 52.2478 52.84C52.2478 53.5333 52.0611 54.0667 51.6878 54.44C51.3145 54.8133 50.7678 55 50.0478 55H35.3278Z" fill="white"/>
</svg>
