<svg width="71" height="70" viewBox="0 0 71 70" fill="none" xmlns="http://www.w3.org/2000/svg">
<ellipse cx="33" cy="34" rx="33" ry="34" fill="#760B2F"/>
<ellipse cx="38" cy="36" rx="33" ry="34" fill="#F51E65"/>
<path d="M41.4478 55.4C40.0078 55.4 38.5145 55.2133 36.9678 54.84C35.4211 54.4667 34.0745 53.9067 32.9278 53.16C32.3945 52.8133 32.0345 52.4133 31.8478 51.96C31.6611 51.5067 31.6078 51.08 31.6878 50.68C31.7945 50.2533 31.9945 49.8933 32.2878 49.6C32.6078 49.3067 32.9945 49.1333 33.4478 49.08C33.9278 49.0267 34.4478 49.1467 35.0078 49.44C36.1011 50.0267 37.1545 50.4533 38.1678 50.72C39.1811 50.96 40.2211 51.08 41.2878 51.08C42.4611 51.08 43.4478 50.92 44.2478 50.6C45.0478 50.28 45.6478 49.8 46.0478 49.16C46.4745 48.52 46.6878 47.7467 46.6878 46.84C46.6878 45.5067 46.2345 44.52 45.3278 43.88C44.4478 43.2133 43.1545 42.88 41.4478 42.88H38.8878C38.1411 42.88 37.5678 42.6933 37.1678 42.32C36.7945 41.9467 36.6078 41.4267 36.6078 40.76C36.6078 40.0933 36.7945 39.5733 37.1678 39.2C37.5678 38.8267 38.1411 38.64 38.8878 38.64H40.9678C41.9811 38.64 42.8478 38.48 43.5678 38.16C44.2878 37.8133 44.8478 37.3333 45.2478 36.72C45.6478 36.1067 45.8478 35.36 45.8478 34.48C45.8478 33.2533 45.4345 32.32 44.6078 31.68C43.8078 31.04 42.6345 30.72 41.0878 30.72C40.1011 30.72 39.1678 30.84 38.2878 31.08C37.4345 31.2933 36.4878 31.7067 35.4478 32.32C34.9678 32.6133 34.5011 32.7333 34.0478 32.68C33.6211 32.6267 33.2611 32.4533 32.9678 32.16C32.6745 31.8667 32.4745 31.52 32.3678 31.12C32.2611 30.6933 32.2878 30.2667 32.4478 29.84C32.6078 29.3867 32.9411 29 33.4478 28.68C34.5945 27.9333 35.8611 27.3733 37.2478 27C38.6345 26.6 40.0611 26.4 41.5278 26.4C43.4745 26.4 45.1411 26.7067 46.5278 27.32C47.9145 27.9067 48.9678 28.76 49.6878 29.88C50.4345 30.9733 50.8078 32.3067 50.8078 33.88C50.8078 35 50.5945 36.0267 50.1678 36.96C49.7411 37.8667 49.1411 38.64 48.3678 39.28C47.5945 39.92 46.6611 40.3733 45.5678 40.64V40.16C47.4878 40.48 48.9811 41.28 50.0478 42.56C51.1145 43.8133 51.6478 45.3867 51.6478 47.28C51.6478 48.9333 51.2345 50.3733 50.4078 51.6C49.5811 52.8267 48.4078 53.7733 46.8878 54.44C45.3678 55.08 43.5545 55.4 41.4478 55.4Z" fill="white"/>
</svg>
