<svg width="53" height="51" viewBox="0 0 53 51" fill="none" xmlns="http://www.w3.org/2000/svg">
<path d="M26.5 0.966797C21.6359 0.966797 17.6658 4.8805 17.6658 9.67541C17.6658 14.4703 21.6359 18.3841 26.5 18.3841C31.3641 18.3841 35.3342 14.4703 35.3342 9.67541C35.3342 4.8805 31.3641 0.966797 26.5 0.966797ZM26.5 3.45499C30 3.45499 32.8102 6.22521 32.8102 9.67541C32.8102 13.1256 30 15.8959 26.5 15.8959C23 15.8959 20.1898 13.1256 20.1898 9.67541C20.1898 6.22521 23 3.45499 26.5 3.45499ZM26.5 20.8722C19.5868 20.8722 13.6472 25.6291 12.1049 32.0496C9.12272 32.8295 6.60066 34.3115 4.76938 36.1706C4.64381 36.3043 4.54957 36.4636 4.49331 36.6371L0.0762005 49.078C-0.029028 49.3629 -0.0251535 49.6758 0.0870965 49.958C0.199347 50.2402 0.41225 50.4724 0.685825 50.6108C0.9594 50.7492 1.27483 50.7844 1.57287 50.7098C1.87091 50.6351 2.13106 50.4558 2.30448 50.2054C4.3102 47.3639 8.89024 45.1319 13.8797 45.1319C18.9036 45.1319 23.4558 47.3202 25.4549 50.1861C25.5705 50.3544 25.7262 50.4922 25.9084 50.5875C26.0906 50.6828 26.2937 50.7327 26.5 50.7327C26.7063 50.7327 26.9094 50.6828 27.0916 50.5875C27.2738 50.4922 27.4295 50.3544 27.5451 50.1861C29.5442 47.3202 34.0964 45.1319 39.1203 45.1319C44.1098 45.1319 48.6898 47.3639 50.6955 50.2054C50.8689 50.4558 51.1291 50.6351 51.4271 50.7098C51.7252 50.7844 52.0406 50.7492 52.3142 50.6108C52.5877 50.4724 52.8007 50.2402 52.9129 49.958C53.0252 49.6758 53.029 49.3629 52.9238 49.078L48.5067 36.6371C48.4504 36.4636 48.3562 36.3043 48.2306 36.1706C46.3993 34.3115 43.8773 32.8295 40.8951 32.0496C39.3528 25.6291 33.4132 20.8722 26.5 20.8722ZM26.5 23.3604C31.8438 23.3604 36.4752 26.8159 38.1146 31.5636C37.4695 31.4973 36.8173 31.447 36.1427 31.447C32.494 31.447 29.0932 32.6915 26.5 34.3433C23.9068 32.6915 20.506 31.447 16.8573 31.447C16.1827 31.447 15.5305 31.4974 14.8854 31.5636C16.5248 26.8159 21.1562 23.3604 26.5 23.3604ZM16.8573 33.9352C19.9488 33.9352 23.0248 35.0433 25.238 36.4622V46.4927C22.3822 44.1011 18.3106 42.6438 13.8797 42.6438C10.1954 42.6438 6.77435 43.7197 4.03977 45.4235L6.74131 37.7841C8.9838 35.5885 12.5441 33.9352 16.8573 33.9352ZM36.1427 33.9352C40.4559 33.9352 44.0162 35.5885 46.2587 37.7841L48.9602 45.4235C46.2257 43.7197 42.8046 42.6438 39.1203 42.6438C34.6894 42.6438 30.6178 44.1011 27.762 46.4927V36.4622C29.9752 35.0433 33.0512 33.9352 36.1427 33.9352Z" fill="#AFAFAF"/>
</svg>
