<svg width="43" height="61" viewBox="0 0 43 61" fill="none" xmlns="http://www.w3.org/2000/svg">
<path d="M6.29134 36.5835V54.8335H36.708V36.5835H6.29134ZM36.708 30.5002C38.3214 30.5002 39.8687 31.1411 41.0096 32.2819C42.1504 33.4228 42.7913 34.9701 42.7913 36.5835V54.8335C42.7913 56.4469 42.1504 57.9942 41.0096 59.1351C39.8687 60.2759 38.3214 60.9168 36.708 60.9168H6.29134C4.67794 60.9168 3.13062 60.2759 1.98977 59.1351C0.848928 57.9942 0.208008 56.4469 0.208008 54.8335V36.5835C0.208008 34.9701 0.848928 33.4228 1.98977 32.2819C3.13062 31.1411 4.67794 30.5002 6.29134 30.5002V15.2918C6.29134 11.2583 7.89364 7.39003 10.7458 4.53791C13.5979 1.6858 17.4662 0.0834961 21.4997 0.0834961C25.5332 0.0834961 29.4015 1.6858 32.2536 4.53791C35.1057 7.39003 36.708 11.2583 36.708 15.2918V30.5002ZM30.6247 30.5002V15.2918C30.6247 12.8717 29.6633 10.5508 27.952 8.83948C26.2408 7.12821 23.9198 6.16683 21.4997 6.16683C19.0796 6.16683 16.7586 7.12821 15.0473 8.83948C13.3361 10.5508 12.3747 12.8717 12.3747 15.2918V30.5002H30.6247ZM21.4997 51.7918C19.8863 51.7918 18.339 51.1509 17.1981 50.0101C16.0573 48.8692 15.4163 47.3219 15.4163 45.7085C15.4163 44.0951 16.0573 42.5478 17.1981 41.4069C18.339 40.2661 19.8863 39.6252 21.4997 39.6252C23.1131 39.6252 24.6604 40.2661 25.8012 41.4069C26.9421 42.5478 27.583 44.0951 27.583 45.7085C27.583 47.3219 26.9421 48.8692 25.8012 50.0101C24.6604 51.1509 23.1131 51.7918 21.4997 51.7918Z" fill="#3C3C3C" fill-opacity="0.61"/>
</svg>
