<svg width="173" height="176" viewBox="0 0 173 176" fill="none" xmlns="http://www.w3.org/2000/svg">
<path d="M147.581 47.9941C149.803 45.7321 144.229 36.4026 135.132 27.1535C126.037 17.9045 116.86 12.2369 114.638 14.4964C112.415 16.7559 117.99 26.0854 127.087 35.337C136.182 44.586 145.358 50.2536 147.581 47.9941Z" fill="#CCD6DD"/>
<path d="M62 74.3128L114.416 21L147.869 55.023L95.4479 108.331L62 74.3128Z" fill="#CCD6DD"/>
<path d="M32.0001 172.516C5.07372 170.563 0.268065 151.321 0.916836 140.91C2.46428 116.134 75.8907 60.0264 75.8907 60.0264L136.044 69.4564C136.049 69.4564 52.4773 174.001 32.0001 172.516Z" fill="#68E090"/>
<path d="M131.431 70.0108C131.153 71.8632 118.807 73.6803 104.082 71.6872C89.3622 69.6916 77.7371 65.7105 78.1168 62.79C78.5012 59.8746 90.7414 59.1206 105.466 61.1161C120.191 63.1092 131.874 67.0979 131.431 70.0108ZM43.2177 119.385C42.4925 120.115 41.5255 120.522 40.5193 120.522C39.5132 120.522 38.5461 120.115 37.821 119.385C37.4674 119.03 37.1861 118.604 36.994 118.132C36.8018 117.661 36.7028 117.153 36.7028 116.641C36.7028 116.128 36.8018 115.621 36.994 115.149C37.1861 114.677 37.4674 114.251 37.821 113.896C38.5461 113.167 39.5132 112.759 40.5193 112.759C41.5255 112.759 42.4925 113.167 43.2177 113.896C44.7075 115.412 44.7075 117.867 43.2177 119.385ZM59.1583 132.163C57.9729 133.354 56.3928 134.019 54.749 134.019C53.1053 134.019 51.5252 133.354 50.3398 132.163C49.7631 131.583 49.3044 130.887 48.9911 130.117C48.6777 129.347 48.5163 128.519 48.5163 127.682C48.5163 126.845 48.6777 126.017 48.9911 125.247C49.3044 124.477 49.7631 123.781 50.3398 123.201C51.5241 122.009 53.1036 121.344 54.7467 121.344C56.3898 121.344 57.9691 122.009 59.1535 123.201C59.7316 123.78 60.1918 124.475 60.5063 125.245C60.8208 126.015 60.9832 126.843 60.9837 127.681C60.9841 128.518 60.8226 129.347 60.5089 130.117C60.1952 130.887 59.7359 131.583 59.1583 132.163ZM67.2175 106.145C64.93 108.472 61.2103 108.472 58.9228 106.145C58.3804 105.599 57.9488 104.944 57.6541 104.219C57.3593 103.495 57.2073 102.715 57.2073 101.928C57.2073 101.14 57.3593 100.361 57.6541 99.6361C57.9488 98.9114 58.3804 98.2564 58.9228 97.7103C60.0369 96.59 61.5223 95.9643 63.0677 95.9643C64.6131 95.9643 66.0986 96.59 67.2127 97.7103C69.5098 100.04 69.5099 103.818 67.2175 106.145ZM34.2118 149.435C32.8519 150.801 31.0394 151.564 29.1539 151.564C27.2683 151.564 25.4557 150.801 24.0958 149.435C23.4331 148.769 22.906 147.971 22.5459 147.087C22.1857 146.203 22 145.252 22 144.291C22 143.33 22.1857 142.379 22.5459 141.496C22.906 140.612 23.4331 139.813 24.0958 139.148C25.4555 137.781 27.2681 137.018 29.1539 137.018C31.0396 137.018 32.8521 137.781 34.2118 139.148C34.8745 139.813 35.4017 140.612 35.7619 141.496C36.122 142.379 36.3076 143.33 36.3076 144.291C36.3076 145.252 36.122 146.203 35.7619 147.087C35.4017 147.971 34.8745 148.769 34.2118 149.435ZM88.9777 104.68C88.0111 105.651 86.7231 106.193 85.3831 106.193C84.0431 106.193 82.755 105.651 81.7884 104.68C81.3176 104.206 80.9431 103.638 80.6874 103.01C80.4318 102.381 80.3002 101.705 80.3007 101.022C80.3011 100.339 80.4336 99.6627 80.69 99.0345C80.9465 98.4062 81.3218 97.8387 81.7932 97.366C82.7586 96.3931 84.0468 95.8494 85.3874 95.8489C86.7279 95.8485 88.0165 96.3913 88.9826 97.3634C89.4531 97.8371 89.8272 98.4052 90.0827 99.0338C90.3381 99.6623 90.4696 100.338 90.4691 101.021C90.4687 101.704 90.3363 102.38 90.08 103.008C89.8237 103.637 89.4489 104.207 88.9777 104.68ZM83.1772 83.7236C82.5446 84.3586 81.7017 84.7131 80.8248 84.7131C79.948 84.7131 79.1051 84.3586 78.4724 83.7236C78.1643 83.414 77.9191 83.0424 77.7516 82.6313C77.5841 82.2201 77.4979 81.7778 77.4979 81.3309C77.4979 80.884 77.5841 80.4416 77.7516 80.0305C77.9191 79.6193 78.1643 79.2478 78.4724 78.9382C79.1045 78.302 79.9476 77.9467 80.8248 77.9467C81.702 77.9467 82.5451 78.302 83.1772 78.9382C83.4854 79.2478 83.7306 79.6193 83.8981 80.0305C84.0655 80.4416 84.1519 80.884 84.1519 81.3309C84.1519 81.7778 84.0655 82.2201 83.8981 82.6313C83.7306 83.0424 83.4854 83.414 83.1772 83.7236Z" fill="#17BF63"/>
<path d="M154.845 17.609C140.807 3.33332 124.944 -3.68391 119.417 1.94093C119.355 2.00376 119.311 2.09173 119.254 2.15708C119.225 2.18472 119.182 2.19478 119.153 2.22494L10.5245 112.688C3.73886 119.59 0 128.766 0 138.531C0 148.29 3.73886 157.469 10.5245 164.368C17.315 171.274 26.3401 175.072 35.9371 175.072C45.5389 175.072 54.5592 171.277 61.3449 164.375L169.973 53.9066C170.007 53.8739 170.017 53.8312 170.045 53.796C170.108 53.7357 170.19 53.6955 170.252 53.6327C175.783 48.0128 168.882 31.8848 154.845 17.609ZM51.1568 154.01C47.0911 158.145 41.6896 160.419 35.942 160.419C30.1943 160.419 24.7878 158.14 20.7221 154.005C16.6565 149.871 14.4171 144.379 14.4171 138.528C14.4171 132.685 16.6565 127.193 20.7173 123.056L121.618 20.4541C124.607 26.0438 129.115 32.1537 134.829 37.9696C140.543 43.7804 146.555 48.3622 152.053 51.4033L51.1568 154.01Z" fill="#8899A6"/>
</svg>
