<svg width="43" height="42" viewBox="0 0 43 42" fill="none" xmlns="http://www.w3.org/2000/svg">
<path d="M26.5846 31.1063H16.2935C16.5333 31.1063 16.7268 33.4104 16.7268 36.2487C16.7268 39.089 16.534 41.3931 16.2935 41.3931H26.5846C26.3454 41.3931 26.1512 39.089 26.1512 36.2487C26.1526 33.4104 26.3454 31.1063 26.5846 31.1063Z" fill="#BFBEBE"/>
<path d="M19.8976 31.1063H16.2943C16.5342 31.1063 16.7277 33.4104 16.7277 36.2487C16.7277 39.089 16.5348 41.3931 16.2943 41.3931H19.8976C20.1374 41.3931 20.3309 39.089 20.3309 36.2487C20.3309 33.4104 20.1374 31.1063 19.8976 31.1063Z" fill="#AEAEAE"/>
<path d="M42.8547 31.0472C42.8547 33.703 40.8055 35.8549 38.2819 35.8549H4.6008C2.07455 35.8549 0.026001 33.703 0.026001 31.0472V6.68717C0.026001 4.03592 2.07455 1.88277 4.6008 1.88277H38.2819C40.8055 1.88277 42.8547 4.03395 42.8547 6.68717V31.0472Z" fill="#D1D2D2"/>
<path d="M8.68714 31.0472V6.68717C8.68714 4.03592 10.7357 1.88277 13.2613 1.88277H4.59811C2.07186 1.88277 0.0233154 4.03395 0.0233154 6.68717V31.0472C0.0233154 33.703 2.07186 35.8549 4.59811 35.8549H13.2613C10.7357 35.8549 8.68714 33.7024 8.68714 31.0465" fill="#C6C5C5"/>
<path d="M42.857 24.2426C42.857 26.8939 40.8078 29.0464 38.2842 29.0464H4.60312C2.07687 29.0464 0.0283203 26.8959 0.0283203 24.2426V6.66958C0.0283203 4.01374 2.07687 1.86255 4.60312 1.86255H38.2842C40.8078 1.86255 42.857 4.01374 42.857 6.66958V24.2426Z" fill="#243438"/>
<path d="M0.0241699 23.0016H42.8555V30.4612H0.0241699V23.0016Z" fill="#243438"/>
<path d="M39.4726 4.09761H3.40567C3.10803 4.09761 2.86011 4.25839 2.86011 4.45199V27.3492C2.86011 27.5435 3.10803 27.7036 3.40567 27.7036H39.4726C39.6345 27.7036 39.7575 27.6701 39.8468 27.611L39.8603 27.5979C39.8603 27.5979 39.871 27.59 39.8737 27.5828C39.9177 27.5605 39.9549 27.527 39.9812 27.486C40.0076 27.4449 40.0222 27.3977 40.0235 27.3492V12.7936V4.45658C40.0208 4.26299 39.7702 4.1022 39.4726 4.1022" fill="#58C5E8"/>
<path d="M21.969 19.3981C27.9997 22.9274 33.8914 25.3306 40.0209 26.7842V4.45199C40.0209 4.25839 39.7703 4.09761 39.4727 4.09761H6.3761C9.77579 10.355 15.6265 15.687 21.9703 19.3981" fill="#28A6DE"/>
<path d="M22.0173 23.1459C14.7409 19.2747 7.45573 13.9125 2.86011 7.29091V27.3485C2.86011 27.5428 3.10803 27.7029 3.40567 27.7029H32.8425C29.2467 26.5709 25.6609 25.0871 22.0186 23.1485" fill="#28A6DE"/>
<path d="M29.3752 41.1645C29.3752 41.6252 29.1481 42 28.8693 42H14.0141C13.7326 42 13.5055 41.6252 13.5055 41.1645C13.5055 40.7032 13.7326 40.3291 14.0141 40.3291H28.8693C29.1481 40.3272 29.3752 40.7025 29.3752 41.1645Z" fill="#D1D2D2"/>
<path d="M18.77 41.1646C18.77 40.7032 18.9971 40.3292 19.2759 40.3292H13.817C13.5375 40.3292 13.311 40.7032 13.311 41.1646C13.311 41.6253 13.5381 42 13.817 42H19.2759C18.9971 42 18.77 41.6253 18.77 41.1646Z" fill="#C6C5C5"/>
<path d="M23.0655 31.9035C22.9996 31.8418 22.9035 31.8241 22.7725 31.8609L22.018 32.0492C21.7829 32.1116 21.6639 32.2631 21.6639 32.5073L21.6613 33.2954C21.6613 33.4096 21.6875 33.4943 21.7399 33.5428C21.762 33.5636 21.7883 33.5798 21.817 33.5902C21.8458 33.6007 21.8765 33.6054 21.9072 33.6039C21.9475 33.6039 21.9851 33.5953 22.0335 33.5861L22.7873 33.3985C23.0225 33.3368 23.1421 33.1845 23.1448 32.9371V32.1516C23.1427 32.0354 23.1165 31.9521 23.0655 31.9035ZM22.665 32.8006C22.665 32.8879 22.6234 32.9417 22.538 32.9647L22.2706 33.0329C22.256 33.0358 22.2412 33.0375 22.2263 33.0382C22.2043 33.0386 22.1829 33.0314 22.1658 33.0178C22.1484 33.0014 22.1369 32.9706 22.1403 32.926V32.6457C22.1403 32.5585 22.182 32.5046 22.2659 32.4823L22.5367 32.4141C22.5831 32.4036 22.618 32.4088 22.6382 32.4292C22.6583 32.4469 22.667 32.4764 22.667 32.5184V32.8013H22.665V32.8006Z" fill="#243438"/>
<path d="M21.2179 32.504C21.2179 32.2599 21.1003 32.1077 20.8631 32.046L20.1093 31.8576C19.9789 31.8209 19.8822 31.8406 19.8197 31.9003C19.7646 31.9489 19.7384 32.0322 19.7384 32.1477L19.7411 32.9319C19.7438 33.1793 19.8614 33.3322 20.0958 33.3933L20.8524 33.5816C20.8967 33.5947 20.9384 33.5993 20.9747 33.5993C21.0054 33.601 21.0361 33.5963 21.0649 33.5857C21.0938 33.5751 21.12 33.5587 21.1419 33.5376C21.1944 33.4897 21.2206 33.4057 21.2206 33.2902L21.2179 32.504ZM20.7167 33.0146C20.7032 33.0284 20.6831 33.035 20.6569 33.035C20.6569 33.035 20.628 33.0323 20.6125 33.0297L20.3438 32.9615C20.2604 32.9385 20.2161 32.8847 20.2161 32.7974V32.5145C20.2161 32.4739 20.2269 32.4437 20.2443 32.4253C20.2652 32.405 20.2994 32.3997 20.3485 32.4102L20.6172 32.4785C20.7005 32.5008 20.7449 32.5546 20.7449 32.6419V32.9247C20.7449 32.9654 20.7449 32.9962 20.7167 33.0146Z" fill="#243438"/>
<path d="M21.748 34.5245C21.7615 34.5245 21.7743 34.5219 21.7924 34.516L22.0611 34.4484C22.1445 34.4293 22.1888 34.3729 22.1888 34.283V34.0034C22.1899 33.9713 22.1807 33.9397 22.1626 33.9129C22.1391 33.8906 22.1021 33.8879 22.0585 33.8991L21.787 33.9667C21.7037 33.987 21.6614 34.0428 21.6614 34.1321L21.6587 34.4136C21.6587 34.4543 21.6694 34.4818 21.6876 34.4996C21.701 34.5166 21.7218 34.5245 21.748 34.5245Z" fill="#243438"/>
<path d="M21.1345 34.5245C21.1185 34.5243 21.1026 34.5214 21.0875 34.516L20.8188 34.4484C20.7354 34.4293 20.6931 34.3729 20.6931 34.283L20.6904 34.0034C20.6904 33.9621 20.7012 33.9345 20.7193 33.9129C20.7401 33.8906 20.7764 33.8879 20.8208 33.8991L21.0949 33.9667C21.1762 33.987 21.2205 34.0428 21.2205 34.1321V34.4136C21.2205 34.4543 21.2098 34.4818 21.1943 34.4996C21.1869 34.5077 21.1776 34.5142 21.1673 34.5185C21.157 34.5228 21.1458 34.5249 21.1345 34.5245Z" fill="#243438"/>
</svg>
