<svg width="99" height="113" viewBox="0 0 99 113" fill="none" xmlns="http://www.w3.org/2000/svg">
<mask id="path-1-inside-1_3786_473" fill="white">
<path fill-rule="evenodd" clip-rule="evenodd" d="M53.4897 78.3093L22.8536 112.101L11 101.354L51.2124 57L52.4795 58.1488L54.8464 56L95.0883 100.327L83.2419 111.082L53.4897 78.3093Z"/>
</mask>
<path fill-rule="evenodd" clip-rule="evenodd" d="M53.4897 78.3093L22.8536 112.101L11 101.354L51.2124 57L52.4795 58.1488L54.8464 56L95.0883 100.327L83.2419 111.082L53.4897 78.3093Z" fill="#E77709"/>
<path d="M53.4897 78.3093L55.7109 76.2928L53.4882 73.8444L51.2672 76.2943L53.4897 78.3093ZM22.8536 112.101L20.8386 114.323L23.0611 116.338L25.0761 114.116L22.8536 112.101ZM11 101.354L8.77745 99.339L6.76244 101.562L8.98499 103.577L11 101.354ZM51.2124 57L53.2274 54.7775L51.0048 52.7624L48.9898 54.985L51.2124 57ZM52.4795 58.1488L50.4644 60.3713L52.4808 62.1994L54.496 60.37L52.4795 58.1488ZM54.8464 56L57.0676 53.9835L55.0511 51.7623L52.8299 53.7788L54.8464 56ZM95.0883 100.327L97.1048 102.548L99.326 100.532L97.3095 98.3106L95.0883 100.327ZM83.2419 111.082L81.0207 113.098L83.0372 115.319L85.2584 113.303L83.2419 111.082ZM51.2672 76.2943L20.631 110.086L25.0761 114.116L55.7123 80.3243L51.2672 76.2943ZM24.8686 109.878L13.015 99.1314L8.98499 103.577L20.8386 114.323L24.8686 109.878ZM13.2225 103.369L53.4349 59.015L48.9898 54.985L8.77745 99.339L13.2225 103.369ZM49.1974 59.2226L50.4644 60.3713L54.4945 55.9262L53.2274 54.7775L49.1974 59.2226ZM54.496 60.37L56.8629 58.2212L52.8299 53.7788L50.463 55.9276L54.496 60.37ZM52.6252 58.0165L92.8671 102.344L97.3095 98.3106L57.0676 53.9835L52.6252 58.0165ZM93.0718 98.1059L81.2254 108.861L85.2584 113.303L97.1048 102.548L93.0718 98.1059ZM85.4631 109.065L55.7109 76.2928L51.2685 80.3258L81.0207 113.098L85.4631 109.065Z" fill="black" mask="url(#path-1-inside-1_3786_473)"/>
<rect x="2.5" y="10.5" width="94" height="69" fill="#84D8FF" stroke="black" stroke-width="5"/>
<rect x="40.5" y="1.5" width="18" height="9" fill="#F0EB0A" stroke="black" stroke-width="3"/>
</svg>
