<svg width="69" height="65" viewBox="0 0 69 65" fill="none" xmlns="http://www.w3.org/2000/svg">
<path d="M59.2971 35.6484L67.3831 43.1641L31.4815 59.3125C31.4815 59.3125 26.7378 61.3438 24.4737 58.0938C15.6331 45.0938 59.2971 35.6484 59.2971 35.6484Z" fill="#962C2C"/>
<path d="M30.6184 49.8672C30.6184 49.8672 23.7184 52.1016 25.0122 56.4687C26.3059 60.9375 31.8044 58.1953 31.8044 58.1953L65.8731 43.2656C65.8731 43.2656 63.9325 38.4922 67.3825 35.3438L30.6184 49.8672Z" fill="#D9E3E8"/>
<path d="M36.3325 5.07812L68.9997 35.0391L30.4028 49.2578L5.60596 12.8984L36.3325 5.07812Z" fill="#ED4C5C"/>
<path d="M37.3032 11.8828L43.5564 18.1797L20.161 26.1016L14.6626 18.0781L37.3032 11.8828Z" fill="white"/>
<path d="M65.765 38.5938L43.0166 47.3281L65.4416 37.6797L65.765 38.5938Z" fill="#94989B"/>
<path d="M65.4419 41.2344L41.1841 50.6797L65.0107 40.2188L65.4419 41.2344Z" fill="#94989B"/>
<path d="M65.6575 42.6563L34.7153 55.25L65.2263 41.7422L65.6575 42.6563Z" fill="#94989B"/>
<path d="M24.4734 58.0939C20.7 50.6798 30.4031 49.3595 30.4031 49.3595L5.60625 12.8986C5.60625 12.8986 0 12.797 0 18.2814C0 20.5158 1.07812 22.2423 1.07812 22.2423L24.4734 58.0939Z" fill="#C94747"/>
</svg>
