<svg width="77" height="57" viewBox="0 0 77 57" fill="none" xmlns="http://www.w3.org/2000/svg">
<path d="M64.1663 19H12.833V47.5C12.833 50.1125 15.7205 52.25 19.2497 52.25H57.7497C61.2788 52.25 64.1663 50.1125 64.1663 47.5V19Z" fill="#616161"/>
<path d="M57.7497 4.75H19.2497C15.7205 4.75 12.833 6.8875 12.833 9.5V20.1875H64.1663V9.5C64.1663 6.8875 61.2788 4.75 57.7497 4.75Z" fill="#424242"/>
<path d="M52.9375 11.875H56.1458V14.25H52.9375V11.875Z" fill="#33691E"/>
<path d="M46.5205 11.875H49.7289V14.25H46.5205V11.875Z" fill="#33691E"/>
<path d="M57.7497 27.3125H52.9372C51.9747 27.3125 51.333 26.8375 51.333 26.125V23.75C51.333 23.0375 51.9747 22.5625 52.9372 22.5625H57.7497C58.7122 22.5625 59.3539 23.0375 59.3539 23.75V26.125C59.3539 26.8375 58.7122 27.3125 57.7497 27.3125Z" fill="#FF5252"/>
<path d="M24.0622 27.3125H19.2497C18.2872 27.3125 17.6455 26.8375 17.6455 26.125V23.75C17.6455 23.0375 18.2872 22.5625 19.2497 22.5625H24.0622C25.0247 22.5625 25.6663 23.0375 25.6663 23.75V26.125C25.6663 26.8375 25.0247 27.3125 24.0622 27.3125Z" fill="#E0E0E0"/>
<path d="M35.2917 27.3125H30.4792C29.5167 27.3125 28.875 26.8375 28.875 26.125V23.75C28.875 23.0375 29.5167 22.5625 30.4792 22.5625H35.2917C36.2542 22.5625 36.8958 23.0375 36.8958 23.75V26.125C36.8958 26.8375 36.2542 27.3125 35.2917 27.3125Z" fill="#E0E0E0"/>
<path d="M46.5202 27.3125H41.7077C40.7452 27.3125 40.1035 26.8375 40.1035 26.125V23.75C40.1035 23.0375 40.7452 22.5625 41.7077 22.5625H46.5202C47.4827 22.5625 48.1244 23.0375 48.1244 23.75V26.125C48.1244 26.8375 47.4827 27.3125 46.5202 27.3125Z" fill="#E0E0E0"/>
<path d="M24.0622 34.4375H19.2497C18.2872 34.4375 17.6455 33.9625 17.6455 33.25V30.875C17.6455 30.1625 18.2872 29.6875 19.2497 29.6875H24.0622C25.0247 29.6875 25.6663 30.1625 25.6663 30.875V33.25C25.6663 33.9625 25.0247 34.4375 24.0622 34.4375Z" fill="#E0E0E0"/>
<path d="M35.2917 34.4375H30.4792C29.5167 34.4375 28.875 33.9625 28.875 33.25V30.875C28.875 30.1625 29.5167 29.6875 30.4792 29.6875H35.2917C36.2542 29.6875 36.8958 30.1625 36.8958 30.875V33.25C36.8958 33.9625 36.2542 34.4375 35.2917 34.4375Z" fill="#E0E0E0"/>
<path d="M46.5202 34.4375H41.7077C40.7452 34.4375 40.1035 33.9625 40.1035 33.25V30.875C40.1035 30.1625 40.7452 29.6875 41.7077 29.6875H46.5202C47.4827 29.6875 48.1244 30.1625 48.1244 30.875V33.25C48.1244 33.9625 47.4827 34.4375 46.5202 34.4375Z" fill="#E0E0E0"/>
<path d="M24.0622 41.5625H19.2497C18.2872 41.5625 17.6455 41.0875 17.6455 40.375V38C17.6455 37.2875 18.2872 36.8125 19.2497 36.8125H24.0622C25.0247 36.8125 25.6663 37.2875 25.6663 38V40.375C25.6663 41.0875 25.0247 41.5625 24.0622 41.5625Z" fill="#E0E0E0"/>
<path d="M35.2917 41.5625H30.4792C29.5167 41.5625 28.875 41.0875 28.875 40.375V38C28.875 37.2875 29.5167 36.8125 30.4792 36.8125H35.2917C36.2542 36.8125 36.8958 37.2875 36.8958 38V40.375C36.8958 41.0875 36.2542 41.5625 35.2917 41.5625Z" fill="#E0E0E0"/>
<path d="M46.5202 41.5625H41.7077C40.7452 41.5625 40.1035 41.0875 40.1035 40.375V38C40.1035 37.2875 40.7452 36.8125 41.7077 36.8125H46.5202C47.4827 36.8125 48.1244 37.2875 48.1244 38V40.375C48.1244 41.0875 47.4827 41.5625 46.5202 41.5625Z" fill="#E0E0E0"/>
<path d="M24.0622 48.6875H19.2497C18.2872 48.6875 17.6455 48.2125 17.6455 47.5V45.125C17.6455 44.4125 18.2872 43.9375 19.2497 43.9375H24.0622C25.0247 43.9375 25.6663 44.4125 25.6663 45.125V47.5C25.6663 48.2125 25.0247 48.6875 24.0622 48.6875Z" fill="#E0E0E0"/>
<path d="M35.2917 48.6875H30.4792C29.5167 48.6875 28.875 48.2125 28.875 47.5V45.125C28.875 44.4125 29.5167 43.9375 30.4792 43.9375H35.2917C36.2542 43.9375 36.8958 44.4125 36.8958 45.125V47.5C36.8958 48.2125 36.2542 48.6875 35.2917 48.6875Z" fill="#E0E0E0"/>
<path d="M46.5202 48.6875H41.7077C40.7452 48.6875 40.1035 48.2125 40.1035 47.5V45.125C40.1035 44.4125 40.7452 43.9375 41.7077 43.9375H46.5202C47.4827 43.9375 48.1244 44.4125 48.1244 45.125V47.5C48.1244 48.2125 47.4827 48.6875 46.5202 48.6875Z" fill="#E0E0E0"/>
<path d="M57.7497 34.4375H52.9372C51.9747 34.4375 51.333 33.9625 51.333 33.25V30.875C51.333 30.1625 51.9747 29.6875 52.9372 29.6875H57.7497C58.7122 29.6875 59.3539 30.1625 59.3539 30.875V33.25C59.3539 33.9625 58.7122 34.4375 57.7497 34.4375Z" fill="#BDBDBD"/>
<path d="M57.7497 41.5625H52.9372C51.9747 41.5625 51.333 41.0875 51.333 40.375V38C51.333 37.2875 51.9747 36.8125 52.9372 36.8125H57.7497C58.7122 36.8125 59.3539 37.2875 59.3539 38V40.375C59.3539 41.0875 58.7122 41.5625 57.7497 41.5625Z" fill="#BDBDBD"/>
<path d="M57.7497 48.6875H52.9372C51.9747 48.6875 51.333 48.2125 51.333 47.5V45.125C51.333 44.4125 51.9747 43.9375 52.9372 43.9375H57.7497C58.7122 43.9375 59.3539 44.4125 59.3539 45.125V47.5C59.3539 48.2125 58.7122 48.6875 57.7497 48.6875Z" fill="#BDBDBD"/>
</svg>
