<svg width="50" height="52" viewBox="0 0 50 52" fill="none" xmlns="http://www.w3.org/2000/svg">
<path d="M13.7363 25.3821V36.0139C13.7363 40.2666 16.9231 43.8105 20.989 43.8105H30.2198C30.6593 43.8105 31.0989 43.9287 31.4286 44.283L38.5714 50.544C40.2198 51.9616 42.7472 50.7803 42.7472 48.4176V43.8105C46.7032 43.8105 49.9999 40.3847 49.9999 36.0139V25.3821C49.9999 21.1294 46.8131 17.5854 42.7472 17.5854H20.989C17.033 17.5854 13.7363 21.0112 13.7363 25.3821ZM46.8131 35.8957C46.8131 38.2584 45.0549 40.2666 42.7472 40.2666H41.3186C40.3296 40.2666 39.4505 41.0935 39.4505 42.2748V43.8105V46.8819L32.0879 40.5029C31.978 40.3847 31.7582 40.2666 31.5385 40.2666H20.7693C18.5715 40.2666 16.7034 38.3765 16.7034 35.8957V25.264C16.7034 22.9013 18.4616 20.8931 20.7693 20.8931H42.6373C44.8351 20.8931 46.7032 22.7832 46.7032 25.264V35.8957H46.8131Z" fill="#AFAFAF"/>
<path d="M8.90107 3.88182H30.6593C33.7362 3.88182 36.2636 6.59883 36.2636 9.9065V12.3872H39.4504V9.9065C39.4504 4.5906 35.4944 0.337891 30.5494 0.337891H8.90107C3.95603 0.337891 0 4.5906 0 9.9065V20.4201C0 25.736 3.95603 29.9888 8.90107 29.9888V26.563C5.82416 26.563 3.29669 23.8459 3.29669 20.5383V10.0246C3.29669 6.59883 5.82416 3.88182 8.90107 3.88182Z" fill="#AFAFAF"/>
</svg>
