<svg width="63" height="74" viewBox="0 0 63 74" fill="none" xmlns="http://www.w3.org/2000/svg">
<path d="M47.2793 24.6327C46.8836 25.259 46.3319 25.7857 45.6718 26.1676C45.0117 26.5494 44.2628 26.775 43.4894 26.8249H43.3713C41.4518 26.7694 39.7094 25.2524 38.4691 22.5699L40.2804 21.8299C41.186 23.8002 42.3377 24.9379 43.4402 24.9749C44.3163 25.0027 45.2022 24.3459 45.9897 23.1434C45.9897 23.1342 45.9897 23.1342 45.9996 23.1249C46.1697 22.6571 46.2594 22.1669 46.2654 21.6727C46.2947 20.6957 45.9682 19.7387 45.3399 18.9599C44.7116 18.1811 43.8191 17.6272 42.8102 17.3899C41.968 18.0924 40.8847 18.4864 39.7587 18.4999C39.604 18.5002 39.4494 18.4909 39.296 18.4722C38.5479 18.3746 37.8313 18.1255 37.1956 17.7422C36.56 17.3589 36.0205 16.8505 35.6144 16.2522L37.2288 15.1977C37.4785 15.575 37.8101 15.8985 38.2019 16.1472C38.5937 16.3958 39.037 16.564 39.5027 16.6407C40.0322 16.6927 40.5651 16.5789 41.0187 16.3169C41.0463 15.2184 40.6143 14.1534 39.8155 13.3509C39.0167 12.5484 37.9148 12.0723 36.7465 12.0249C35.5673 12.0739 34.4569 12.5599 33.6581 13.3763C32.8592 14.1928 32.4371 15.2734 32.4841 16.3817V19.0272H30.5154V16.3817C30.5623 15.2734 30.1402 14.1928 29.3414 13.3763C28.5426 12.5599 27.4322 12.0739 26.253 12.0249C25.0847 12.0723 23.9828 12.5484 23.184 13.3509C22.3852 14.1534 21.9532 15.2184 21.9808 16.3169C22.4344 16.5789 22.9673 16.6927 23.4968 16.6407C23.9625 16.564 24.4058 16.3958 24.7976 16.1472C25.1894 15.8985 25.521 15.575 25.7707 15.1977L27.3851 16.2522C26.979 16.8505 26.4395 17.3589 25.8038 17.7422C25.1682 18.1255 24.4516 18.3746 23.7035 18.4722C23.5501 18.4909 23.3955 18.5002 23.2408 18.4999C22.1148 18.4864 21.0315 18.0924 20.1893 17.3899C19.1804 17.6272 18.2879 18.1811 17.6596 18.9599C17.0313 19.7387 16.7048 20.6957 16.7341 21.6727C16.7401 22.1639 16.8299 22.6511 16.9999 23.1157C17.7776 24.3089 18.6733 24.9749 19.5199 24.9749H19.5593C20.6618 24.9379 21.8135 23.8002 22.7191 21.8299L24.5304 22.5699C23.2901 25.2524 21.5477 26.7694 19.6282 26.8249H19.5101C18.7367 26.775 17.9878 26.5494 17.3277 26.1676C16.6675 25.7857 16.1159 25.259 15.7202 24.6327C14.8253 25.1604 14.0877 25.893 13.5764 26.7618C13.0651 27.6306 12.7969 28.6071 12.7969 29.5999C12.7969 30.5927 13.0651 31.5692 13.5764 32.438C14.0877 33.3068 14.8253 34.0394 15.7202 34.5672C16.1246 33.9238 16.6942 33.3861 17.3769 33.0031C18.0596 32.6201 18.8337 32.4041 19.6282 32.3749C21.5477 32.4304 23.2901 33.9474 24.5304 36.6299L22.7191 37.3699C21.8135 35.3997 20.6618 34.2619 19.5593 34.2249C18.7029 34.2064 17.7972 34.8724 16.9999 36.0842V36.0934C16.8299 36.5548 16.7402 37.0389 16.7341 37.5272C16.7048 38.5041 17.0313 39.4611 17.6596 40.2399C18.2879 41.0187 19.1804 41.5726 20.1893 41.8099C20.6647 41.4126 21.222 41.1116 21.8266 40.9254C22.4312 40.7392 23.0701 40.6719 23.7035 40.7277C24.4516 40.8252 25.1682 41.0743 25.8038 41.4576C26.4395 41.8409 26.979 42.3493 27.3851 42.9477L25.7707 44.0022C25.521 43.6249 25.1894 43.3013 24.7976 43.0527C24.4058 42.804 23.9625 42.6358 23.4968 42.5592C22.9672 42.5061 22.434 42.62 21.9808 42.8829C21.9532 43.9815 22.3852 45.0464 23.184 45.8489C23.9828 46.6514 25.0847 47.1275 26.253 47.1749C27.4322 47.1259 28.5426 46.64 29.3414 45.8235C30.1402 45.007 30.5623 43.9264 30.5154 42.8182V40.1727H32.4841V42.8182C32.4371 43.9264 32.8592 45.007 33.6581 45.8235C34.4569 46.64 35.5673 47.1259 36.7465 47.1749C37.9148 47.1275 39.0167 46.6514 39.8155 45.8489C40.6143 45.0464 41.0463 43.9815 41.0187 42.8829C40.5655 42.62 40.0323 42.5061 39.5027 42.5592C39.037 42.6358 38.5937 42.804 38.2019 43.0527C37.8101 43.3013 37.4785 43.6249 37.2288 44.0022L35.6144 42.9477C36.0205 42.3493 36.56 41.8409 37.1956 41.4576C37.8313 41.0743 38.5479 40.8252 39.296 40.7277C39.9295 40.6713 40.5685 40.7383 41.1732 40.9245C41.7779 41.1107 42.3351 41.4121 42.8102 41.8099C43.8191 41.5726 44.7116 41.0187 45.3399 40.2399C45.9682 39.4611 46.2947 38.5041 46.2654 37.5272C46.2593 37.0359 46.1696 36.5487 45.9996 36.0842C45.2219 34.8909 44.3262 34.2249 43.4796 34.2249H43.4402C42.3377 34.2619 41.186 35.3997 40.2804 37.3699L38.4691 36.6299C39.7094 33.9474 41.4518 32.4304 43.3713 32.3749C44.1656 32.4052 44.9391 32.6216 45.6217 33.0045C46.3042 33.3874 46.874 33.9246 47.2793 34.5672C48.1742 34.0394 48.9118 33.3068 49.4231 32.438C49.9344 31.5692 50.2026 30.5927 50.2026 29.5999C50.2026 28.6071 49.9344 27.6306 49.4231 26.7618C48.9118 25.893 48.1742 25.1604 47.2793 24.6327V24.6327ZM31.4997 37.9249C29.7475 37.9249 28.0347 37.4367 26.5777 36.5219C25.1208 35.6071 23.9853 34.3069 23.3147 32.7857C22.6442 31.2645 22.4688 29.5907 22.8106 27.9758C23.1524 26.3609 23.9962 24.8775 25.2352 23.7132C26.4742 22.549 28.0528 21.7561 29.7714 21.4349C31.4899 21.1136 33.2712 21.2785 34.8901 21.9086C36.5089 22.5387 37.8926 23.6057 38.866 24.9748C39.8395 26.3438 40.3591 27.9534 40.3591 29.5999C40.3555 31.8068 39.4209 33.9223 37.7602 35.4828C36.0996 37.0433 33.8483 37.9215 31.4997 37.9249V37.9249Z" fill="#F7A810"/>
<path d="M31.4995 23.125C31.4011 23.125 31.3026 23.1343 31.2042 23.1435C30.4589 23.2241 29.7741 23.5683 29.2891 24.1062C28.804 24.644 28.555 25.3352 28.5926 26.0393C28.6302 26.7434 28.9516 27.4077 29.4915 27.8973C30.0314 28.3868 30.7493 28.6649 31.4995 28.675C32.8049 28.675 34.0568 29.1623 34.9798 30.0296C35.9028 30.897 36.4214 32.0734 36.4214 33.3C36.4238 33.6077 36.3908 33.9147 36.323 34.2157C37.3003 33.316 37.9701 32.1631 38.2471 30.9041C38.5241 29.6451 38.3956 28.3371 37.878 27.147C37.3604 25.957 36.4773 24.9388 35.3412 24.2224C34.2051 23.506 32.8677 23.124 31.4995 23.125V23.125ZM31.4995 27.75C31.1101 27.75 30.7295 27.6415 30.4057 27.4382C30.082 27.2349 29.8296 26.946 29.6806 26.608C29.5316 26.2699 29.4926 25.8979 29.5686 25.5391C29.6446 25.1802 29.8321 24.8506 30.1074 24.5919C30.3827 24.3331 30.7335 24.1569 31.1154 24.0855C31.4973 24.0142 31.8932 24.0508 32.2529 24.1908C32.6127 24.3308 32.9202 24.568 33.1365 24.8722C33.3528 25.1764 33.4683 25.5341 33.4683 25.9C33.4667 26.3902 33.2588 26.8599 32.8899 27.2065C32.521 27.5532 32.0212 27.7485 31.4995 27.75Z" fill="white" fill-opacity="0.5"/>
<path d="M31.4995 30.5251C30.1942 30.5251 28.9423 30.0378 28.0192 29.1705C27.0962 28.3031 26.5776 27.1267 26.5776 25.9001C26.5753 25.5924 26.6083 25.2854 26.6761 24.9844C25.6988 25.8841 25.0289 27.037 24.7519 28.296C24.475 29.555 24.6035 30.863 25.121 32.0531C25.6386 33.2432 26.5218 34.2613 27.6579 34.9777C28.7939 35.6941 30.1314 36.0761 31.4995 36.0751C31.598 36.0751 31.6964 36.0659 31.7948 36.0566C32.5402 35.976 33.2249 35.6318 33.71 35.0939C34.195 34.5561 34.4441 33.8649 34.4065 33.1608C34.3689 32.4567 34.0475 31.7924 33.5076 31.3029C32.9677 30.8133 32.2497 30.5353 31.4995 30.5251V30.5251ZM31.4995 35.1501C31.1101 35.1501 30.7295 35.0416 30.4057 34.8383C30.082 34.6351 29.8296 34.3461 29.6806 34.0081C29.5316 33.67 29.4926 33.2981 29.5686 32.9392C29.6446 32.5803 29.8321 32.2507 30.1074 31.992C30.3827 31.7332 30.7335 31.557 31.1154 31.4857C31.4973 31.4143 31.8932 31.4509 32.2529 31.5909C32.6127 31.731 32.9202 31.9681 33.1365 32.2723C33.3528 32.5765 33.4683 32.9342 33.4683 33.3001C33.4667 33.7903 33.2588 34.26 32.8899 34.6066C32.521 34.9533 32.0212 35.1486 31.4995 35.1501V35.1501Z" fill="white" fill-opacity="0.5"/>
<path d="M31.4997 0C25.7311 0 20.092 1.69187 15.2956 4.86167C10.4991 8.03147 6.76076 12.5368 4.5532 17.808C2.34565 23.0792 1.76805 28.8795 2.89345 34.4753C4.01885 40.0712 6.79671 45.2113 10.8757 49.2457C14.9548 53.2801 20.1518 56.0275 25.8096 57.1406C31.4673 58.2537 37.3318 57.6824 42.6613 55.499C47.9908 53.3156 52.546 49.6182 55.7509 44.8742C58.9558 40.1303 60.6663 34.5529 60.6663 28.8475C60.6663 21.1966 57.5934 13.8592 52.1236 8.44922C46.6538 3.03928 39.2352 0 31.4997 0ZM47.8913 35.7805C47.9794 36.211 48.025 36.649 48.0275 37.0882C48.0624 38.5945 47.5545 40.0639 46.5944 41.2337C45.6343 42.4035 44.2848 43.1973 42.7872 43.4731C42.6246 44.9754 41.9158 46.3681 40.7928 47.3922C39.6697 48.4164 38.2087 49.0022 36.6816 49.0407C35.6309 49.0298 34.6011 48.7494 33.6928 48.2269C32.7844 47.7044 32.0288 46.9577 31.4997 46.0598C30.9706 46.9577 30.2149 47.7044 29.3066 48.2269C28.3983 48.7494 27.3684 49.0298 26.3177 49.0407C24.7907 49.0022 23.3297 48.4164 22.2066 47.3922C21.0835 46.3681 20.3748 44.9754 20.2122 43.4731C18.7146 43.1973 17.3651 42.4035 16.405 41.2337C15.4449 40.0639 14.9369 38.5945 14.9719 37.0882C14.9744 36.649 15.02 36.211 15.108 35.7805C13.8831 35.0734 12.8669 34.0613 12.1606 32.8448C11.4544 31.6284 11.0828 30.2502 11.0828 28.8475C11.0828 27.4447 11.4544 26.0665 12.1606 24.8501C12.8669 23.6336 13.8831 22.6215 15.108 21.9144C15.02 21.4839 14.9744 21.0459 14.9719 20.6067C14.9369 19.1004 15.4449 17.631 16.405 16.4612C17.3651 15.2914 18.7146 14.4976 20.2122 14.2218C20.3748 12.7195 21.0835 11.3268 22.2066 10.3027C23.3297 9.27853 24.7907 8.69274 26.3177 8.65424C27.3684 8.66513 28.3983 8.94554 29.3066 9.46804C30.2149 9.99054 30.9706 10.7373 31.4997 11.6351C32.0288 10.7373 32.7844 9.99054 33.6928 9.46804C34.6011 8.94554 35.6309 8.66513 36.6816 8.65424C38.2087 8.69274 39.6697 9.27853 40.7928 10.3027C41.9158 11.3268 42.6246 12.7195 42.7872 14.2218C44.2848 14.4976 45.6343 15.2914 46.5944 16.4612C47.5545 17.631 48.0624 19.1004 48.0275 20.6067C48.025 21.0459 47.9794 21.4839 47.8913 21.9144C49.1163 22.6215 50.1325 23.6336 50.8387 24.8501C51.545 26.0665 51.9166 27.4447 51.9166 28.8475C51.9166 30.2502 51.545 31.6284 50.8387 32.8448C50.1325 34.0613 49.1163 35.0734 47.8913 35.7805Z" fill="white" fill-opacity="0.5"/>
</svg>
