<svg width="173" height="179" viewBox="0 0 173 179" fill="none" xmlns="http://www.w3.org/2000/svg">
<path d="M93.0913 40.6976L74.5701 17.2181C74.1648 16.704 73.6665 16.2784 73.1039 15.9658C72.5413 15.6532 71.9252 15.4596 71.2911 15.3961C70.6569 15.3326 70.017 15.4005 69.4078 15.5958C68.7987 15.7911 68.2324 16.1101 67.7412 16.5345L51.5171 30.5337L76.2089 61.8398L92.4329 47.8405C94.5042 46.0561 94.7974 42.8591 93.0913 40.6976Z" fill="#CCD6DD"/>
<path d="M141.504 124.653L111.574 98.826C111.574 98.826 100.065 114.57 87.5169 129.75C77.9727 141.301 58.2357 140.884 47.12 129.257C36.0044 117.631 35.6104 96.9862 46.6491 87.0033C61.1623 73.8786 76.2138 61.8398 76.2138 61.8398L51.5221 30.5337C51.5221 30.5337 26.9072 50.2784 19.7419 57.8285C-6.53576 85.5154 -6.62707 130.303 19.7467 157.889C46.1205 185.476 88.9394 185.375 115.409 157.894C122.627 150.4 141.504 124.653 141.504 124.653Z" fill="#BE1931"/>
<path d="M131.787 81.1721L154.235 100.545C156.301 102.329 156.594 105.526 154.888 107.688L141.504 124.658L111.574 98.8308L124.958 81.8608C125.363 81.346 125.861 80.9198 126.423 80.6065C126.986 80.2933 127.602 80.0991 128.236 80.0351C128.87 79.9712 129.51 80.0386 130.12 80.2337C130.729 80.4288 131.296 80.7477 131.787 81.1721Z" fill="#CCD6DD"/>
<path d="M113.506 20.1085L105.063 11.0957L114.366 1.57014C114.395 1.53998 114.386 1.49474 114.41 1.46458C114.487 1.36907 114.511 1.26854 114.539 1.1479C114.573 1.02726 114.602 0.926722 114.587 0.806082C114.583 0.765869 114.611 0.730688 114.607 0.690475C114.587 0.605021 114.511 0.569824 114.472 0.499451C114.434 0.419024 114.448 0.323516 114.386 0.258169C114.357 0.228009 114.314 0.238068 114.28 0.212935C114.184 0.132508 114.078 0.107376 113.958 0.0721891C113.852 0.0420291 113.761 0.0118775 113.655 0.0219309C113.617 0.0269575 113.578 -0.00823728 113.54 0.00181605L88.8576 6.32034C88.7056 6.36049 88.5663 6.44143 88.4534 6.55516C88.3404 6.66888 88.2578 6.81145 88.2137 6.96878C88.1715 7.12663 88.1697 7.29331 88.2085 7.45211C88.2473 7.61092 88.3253 7.75627 88.4347 7.87359L96.8784 16.8914L87.5793 26.422C87.5505 26.4521 87.5601 26.4974 87.5361 26.5275C87.4592 26.623 87.4352 26.7286 87.4015 26.8492C87.3679 26.9699 87.3391 27.0654 87.3535 27.186C87.3583 27.2262 87.3246 27.2614 87.3343 27.3067C87.3631 27.4323 87.4448 27.5228 87.5168 27.6183C87.5409 27.6535 87.5313 27.6988 87.5601 27.7339L87.613 27.7892C87.8148 27.9702 88.0695 28.0104 88.3194 27.9702C88.353 27.9652 88.3723 28.0004 88.4059 27.9903L113.078 21.6718C113.231 21.6309 113.37 21.549 113.483 21.4344C113.595 21.3197 113.677 21.1763 113.72 21.0183C113.764 20.8603 113.767 20.6932 113.729 20.5336C113.691 20.374 113.615 20.2274 113.506 20.1085ZM171.708 74.8087L161.832 67.5552L169.315 56.4111C169.339 56.3759 169.32 56.3357 169.339 56.3005C169.397 56.1899 169.401 56.0894 169.411 55.9637C169.421 55.838 169.435 55.7375 169.401 55.6169C169.392 55.5767 169.416 55.5415 169.397 55.5012C169.363 55.4208 169.281 55.4007 169.233 55.3354C169.18 55.265 169.176 55.1745 169.103 55.1192C169.07 55.0941 169.027 55.1142 168.993 55.0941C168.882 55.0338 168.777 55.0287 168.652 55.0187C168.541 55.0086 168.445 54.9986 168.344 55.0287C168.306 55.0388 168.267 55.0136 168.229 55.0338L145.07 65.9567C144.928 66.025 144.805 66.131 144.714 66.2641C144.623 66.3972 144.567 66.5529 144.551 66.7158C144.538 66.8791 144.566 67.0432 144.632 67.1921C144.697 67.341 144.799 67.4695 144.926 67.5653L154.802 74.8187L147.324 85.9628C147.3 85.998 147.319 86.0382 147.3 86.0734C147.242 86.184 147.237 86.2896 147.228 86.4152C147.218 86.5359 147.204 86.6415 147.237 86.7571C147.247 86.7973 147.223 86.8375 147.242 86.8777C147.295 86.9933 147.391 87.0687 147.478 87.1491C147.507 87.1793 147.507 87.2245 147.54 87.2497L147.603 87.2899C147.713 87.3531 147.836 87.3895 147.961 87.3965C148.087 87.4034 148.212 87.3808 148.328 87.3301C148.357 87.32 148.386 87.3502 148.415 87.3351L171.569 76.4071C171.711 76.3388 171.834 76.2329 171.925 76.0998C172.016 75.9666 172.072 75.811 172.088 75.6481C172.096 75.4862 172.066 75.3246 172 75.178C171.934 75.0314 171.833 74.9044 171.708 74.8087Z" fill="#FFAC33"/>
</svg>
