<svg width="34" height="32" viewBox="0 0 34 32" fill="none" xmlns="http://www.w3.org/2000/svg">
<path d="M17.7546 19.2631L12.1527 12.6798L10.2854 14.8742L17.7546 23.6521L33.76 4.84241L31.8927 2.64795L17.7546 19.2631Z" fill="white"/>
<mask id="path-2-inside-1_830_55" fill="white">
<path d="M32.2955 9.64869C33.9909 13.236 34.2232 17.3019 32.9466 21.0453C31.6701 24.7886 28.9772 27.9378 25.3988 29.8721C21.8203 31.8064 17.6159 32.3856 13.6141 31.4955C9.61231 30.6054 6.10343 28.3106 3.77903 25.0633C1.45463 21.816 0.483299 17.8519 1.05649 13.9521C1.62967 10.0523 3.70579 6.49978 6.87567 3.99468C10.0456 1.48958 14.0793 0.213613 18.1818 0.418254C22.2843 0.622895 26.1581 2.2933 29.0397 5.10026L25.7504 8.20367C23.6781 6.18507 20.8923 4.98381 17.942 4.83664C14.9917 4.68948 12.0909 5.60708 9.81127 7.4086C7.53167 9.21013 6.03865 11.7649 5.62644 14.5694C5.21424 17.3739 5.91276 20.2247 7.58434 22.56C9.25592 24.8952 11.7793 26.5455 14.6572 27.1856C17.535 27.8257 20.5586 27.4092 23.132 26.0182C25.7054 24.6271 27.642 22.3624 28.56 19.6704C29.4781 16.9784 29.311 14.0544 28.0917 11.4746L32.2955 9.64869Z"/>
</mask>
<path d="M32.2955 9.64869C33.9909 13.236 34.2232 17.3019 32.9466 21.0453C31.6701 24.7886 28.9772 27.9378 25.3988 29.8721C21.8203 31.8064 17.6159 32.3856 13.6141 31.4955C9.61231 30.6054 6.10343 28.3106 3.77903 25.0633C1.45463 21.816 0.483299 17.8519 1.05649 13.9521C1.62967 10.0523 3.70579 6.49978 6.87567 3.99468C10.0456 1.48958 14.0793 0.213613 18.1818 0.418254C22.2843 0.622895 26.1581 2.2933 29.0397 5.10026L25.7504 8.20367C23.6781 6.18507 20.8923 4.98381 17.942 4.83664C14.9917 4.68948 12.0909 5.60708 9.81127 7.4086C7.53167 9.21013 6.03865 11.7649 5.62644 14.5694C5.21424 17.3739 5.91276 20.2247 7.58434 22.56C9.25592 24.8952 11.7793 26.5455 14.6572 27.1856C17.535 27.8257 20.5586 27.4092 23.132 26.0182C25.7054 24.6271 27.642 22.3624 28.56 19.6704C29.4781 16.9784 29.311 14.0544 28.0917 11.4746L32.2955 9.64869Z" stroke="white" stroke-width="10" mask="url(#path-2-inside-1_830_55)"/>
</svg>
