<svg width="40" height="42" viewBox="0 0 40 42" fill="none" xmlns="http://www.w3.org/2000/svg">
<path d="M19.9303 0.189453C8.91986 0.189453 0 9.55225 0 20.9316C0 32.311 8.91986 41.6738 20.0697 41.6738C31.2195 41.6738 40 32.311 40 20.9316C40 9.55225 31.0801 0.189453 19.9303 0.189453ZM8.08362 15.602C8.08362 12.5771 10.453 10.1284 13.3798 10.1284C16.3066 10.1284 18.676 12.5771 18.676 15.602C18.676 18.627 16.3066 21.0757 13.3798 21.0757C10.453 21.0757 8.08362 18.627 8.08362 15.602ZM19.9303 34.6157C17.0035 34.6157 14.6341 32.167 14.6341 29.1421C14.6341 26.1172 17.0035 23.6685 19.9303 23.6685C22.8571 23.6685 25.2265 26.1172 25.2265 29.1421C25.2265 32.167 22.8571 34.6157 19.9303 34.6157ZM26.4808 21.0757C23.554 21.0757 21.1847 18.627 21.1847 15.602C21.1847 12.5771 23.554 10.1284 26.4808 10.1284C29.4077 10.1284 31.777 12.5771 31.777 15.602C31.777 18.627 29.4077 21.0757 26.4808 21.0757Z" fill="#E5E5E5"/>
</svg>
