<svg width="700" height="300" fill="none" xmlns="http://www.w3.org/2000/svg"><path d="M543.126 43.027l21.814-21.212 13.922 13.537-21.816 21.21-13.92-13.535z" fill="#CCD6DD"/><path d="M530.206 81.887C519 81.11 517 73.454 517.27 69.312c.644-9.858 31.202-32.182 31.202-32.182l25.034 3.752c.002 0-34.778 41.596-43.3 41.005z" fill="#68E090"/><path d="M578.652 22.21c-5.842-5.68-12.444-8.472-14.744-6.234-.026.025-.044.06-.068.086-.012.011-.03.015-.042.027L518.59 60.04c-2.824 2.746-4.38 6.397-4.38 10.282 0 3.883 1.556 7.535 4.38 10.28 2.826 2.748 6.582 4.259 10.576 4.259 3.996 0 7.75-1.51 10.574-4.256l45.208-43.953c.014-.013.018-.03.03-.044.026-.024.06-.04.086-.065 2.302-2.236-.57-8.654-6.412-14.334zM535.5 76.481c-1.692 1.645-3.94 2.55-6.332 2.55s-4.642-.907-6.334-2.552c-1.692-1.645-2.624-3.83-2.624-6.158 0-2.325.932-4.51 2.622-6.156l41.992-40.823c1.244 2.224 3.12 4.655 5.498 6.969 2.378 2.312 4.88 4.135 7.168 5.345L535.5 76.48z" fill="#8899A6"/><path d="M572.392 40.558c-.116.737-5.254 1.46-11.382.667-6.126-.794-10.964-2.378-10.806-3.54.16-1.16 5.254-1.46 11.382-.666 6.128.793 10.99 2.38 10.806 3.539zM535.68 60.203a1.62 1.62 0 01-2.246 0 1.514 1.514 0 010-2.184 1.62 1.62 0 012.246 0c.62.603.62 1.58 0 2.184zm6.634 5.084a2.649 2.649 0 01-3.67 0 2.474 2.474 0 010-3.566 2.646 2.646 0 013.668 0 2.47 2.47 0 01.002 3.566zm3.354-10.352c-.952.926-2.5.926-3.452 0a2.329 2.329 0 010-3.356 2.489 2.489 0 013.45 0c.956.927.956 2.43.002 3.356zm-13.736 17.224a3.039 3.039 0 01-4.21 0 2.837 2.837 0 010-4.093 3.038 3.038 0 014.21 0 2.837 2.837 0 010 4.093zm22.792-17.807a2.16 2.16 0 01-2.992 0 2.017 2.017 0 01.002-2.91 2.157 2.157 0 012.992-.001 2.018 2.018 0 01-.002 2.91zm-2.414-8.338a1.414 1.414 0 01-1.958 0 1.32 1.32 0 010-1.904 1.412 1.412 0 011.958 0 1.32 1.32 0 010 1.904z" fill="#17BF63"/><path d="M582.489 31.82c.925-.9-1.395-4.612-5.181-8.292-3.785-3.68-7.604-5.935-8.529-5.036-.925.899 1.395 4.611 5.181 8.292 3.785 3.68 7.604 5.935 8.529 5.036zM20 46v-4h60v4H20zm0 14v-4h60v4H20zm0 14v-4h60v4H20zm0-42v-4h60v4H20z" fill="#CCD6DD"/><path d="M84 80V16a2 2 0 00-2-2h-2a2 2 0 00-2 2H22a2 2 0 00-2-2h-2a2 2 0 00-2 2v64h68zM22 22h56v58H22V22z" fill="#D5AB88"/><path d="M52 25c-1.658 0-3 1.342-3 3 0-1.658-1.342-3-3-3s-3 1.342-3 3c0-1.658-1.342-3-3-3s-3 1.342-3 3c0-1.658-1.342-3-3-3s-3 1.342-3 3c0-1.658-1.342-3-3-3s-3 1.342-3 3v4c0 1.658 1.342 3 3 3s3-1.342 3-3c0 1.658 1.342 3 3 3s3-1.342 3-3c0 1.658 1.342 3 3 3s3-1.342 3-3c0 1.658 1.342 3 3 3s3-1.342 3-3a3 3 0 106 0v-4a3 3 0 00-3-3z" fill="#3B94D9"/><path d="M52 39c-1.658 0-3 1.342-3 3 0-1.658-1.342-3-3-3s-3 1.342-3 3c0-1.658-1.342-3-3-3s-3 1.342-3 3c0-1.658-1.342-3-3-3s-3 1.342-3 3c0-1.658-1.342-3-3-3s-3 1.342-3 3v4c0 1.658 1.342 3 3 3s3-1.342 3-3c0 1.658 1.342 3 3 3s3-1.342 3-3c0 1.658 1.342 3 3 3s3-1.342 3-3c0 1.658 1.342 3 3 3s3-1.342 3-3a3 3 0 106 0v-4a3 3 0 00-3-3z" fill="#BE1931"/><path d="M52 53a3 3 0 00-3 3 3 3 0 10-6 0 3 3 0 10-6 0 3 3 0 10-6 0 3 3 0 10-6 0v4a3 3 0 106 0 3 3 0 106 0 3 3 0 106 0 3 3 0 106 0 3 3 0 106 0v-4c0-1.656-1.344-3-3-3z" fill="#5C913B"/><path d="M52 67a3 3 0 00-3 3 3 3 0 10-6 0 3 3 0 10-6 0 3 3 0 10-6 0 3 3 0 10-6 0v4a3 3 0 106 0 3 3 0 106 0 3 3 0 106 0 3 3 0 106 0 3 3 0 106 0v-4c0-1.656-1.344-3-3-3z" fill="#FFAC33"/><path d="M72 35a3 3 0 01-3-3v-4a3 3 0 116 0v4a3 3 0 01-3 3z" fill="#3B94D9"/><path d="M72 49a3 3 0 01-3-3v-4a3 3 0 116 0v4a3 3 0 01-3 3z" fill="#BE1931"/><path d="M72 63c-1.656 0-3-1.344-3-3v-4a3.001 3.001 0 016 0v4c0 1.656-1.344 3-3 3z" fill="#5C913B"/><path d="M72 77c-1.656 0-3-1.344-3-3v-4a3.001 3.001 0 016 0v4c0 1.656-1.344 3-3 3z" fill="#FFAC33"/><path d="M84 80H16a2 2 0 00-2 2v2a2 2 0 002 2h68a2 2 0 002-2v-2a2 2 0 00-2-2z" fill="#BF6952"/><path d="M186 68a8 8 0 01-8 8h-16V24h16a8 8 0 018 8v36z" fill="#ED2939"/><path d="M122 24a8 8 0 00-8 8v36a8 8 0 008 8h16V24h-16z" fill="#002495"/><path d="M138 24h24v52h-24V24z" fill="#EEE"/><path d="M386 167a8 8 0 01-8 8h-16v-52h16a8 8 0 018 8v36z" fill="#ED2939"/><path d="M322 123a8 8 0 00-8 8v36a8 8 0 008 8h16v-52h-16z" fill="#002495"/><path d="M338 123h24v52h-24v-52z" fill="#EEE"/><path d="M320.038 66.492l6.864 6.864-1.846 1.844-6.864-6.862 1.846-1.846z" fill="#77B255"/><path d="M326.724 73.174l6.862 6.864-1.846 1.846-6.86-6.864 1.844-1.846z" fill="#FFD983"/><path d="M326.546 62.474l6.864 6.864-1.846 1.846-6.864-6.864 1.846-1.846z" fill="#FFAC33"/><path d="M331.996 67.924l6.864 6.864-1.846 1.846-6.862-6.864 1.844-1.846zm7.818-18.718l6.862 6.864-1.846 1.846-6.862-6.864 1.846-1.846z" fill="#EA596E"/><path d="M345.262 54.658l6.864 6.862-1.846 1.846-6.864-6.862 1.846-1.846z" fill="#FFAC33"/><path d="M343.94 42.754l6.864 6.864-1.844 1.846-6.864-6.864 1.844-1.846z" fill="#77B255"/><path d="M350.554 49.366l6.864 6.864-1.846 1.846-6.864-6.864 1.846-1.846z" fill="#FFD983"/><path d="M349.232 37.462l6.864 6.864-1.846 1.844-6.864-6.862 1.846-1.846z" fill="#FFAC33"/><path d="M355.846 44.076l6.864 6.862-1.846 1.846-6.862-6.864 1.844-1.844zm6.928-20.156l6.864 6.864-1.846 1.844-6.864-6.862 1.846-1.846z" fill="#EA596E"/><path d="M369.388 30.534l6.864 6.862-1.846 1.846-6.864-6.864 1.846-1.844z" fill="#FFAC33"/><path d="M368.026 18.504l6.864 6.864-1.846 1.846-6.864-6.864 1.846-1.846z" fill="#77B255"/><path d="M374.72 25.2l6.864 6.862-1.846 1.846-6.864-6.862 1.846-1.846z" fill="#FFD983"/><path d="M363.844 15.624c-5.04 5.04-5.202 12.29-4.792 19.612 1.002.056 2.004.122 3.004.188.78.052 1.55.102 2.318.148-.396-6.572-.398-12.598 3.212-16.208 1.454-1.406 1.91-3.306.894-4.332-1.07-1.08-3.084-.994-4.636.592z" fill="#9266CC"/><path d="M340.292 65.3l-.306-5.32c-.052-.89-.116-1.798-.148-2.664-.592-.592-4.932-.698-5.306-.324.026.88.094 1.768.142 2.654.056 1.004.252 4.55.298 5.32.108 1.82.192 3.612.172 5.312.518.518 4.742.874 5.29.324.03-1.744-.044-3.522-.142-5.302z" fill="#3B88C3"/><path d="M340.44 70.6l-5.298-.324c-.052 4.418-.768 8.29-3.374 10.896a2.645 2.645 0 001.87 4.518c.676 0 1.354-.258 1.87-.776 4.846-4.844 4.934-14.348 4.932-14.314z" fill="#55ACEE"/><path d="M364.708 40.894a299.23 299.23 0 01-3.006-.188c-.778-.052-1.55-.102-2.316-.148.396 6.57.398 12.598-3.214 16.208-3.608 3.608-9.626 3.61-16.188 3.214-.772-.046-4.318-.28-5.312-.336-7.334-.412-14.594-.252-19.64 4.794a2.644 2.644 0 00.002 3.74 2.64 2.64 0 003.74 0c3.61-3.608 9.63-3.612 16.196-3.216.77.046 4.322.28 5.32.336 7.324.41 14.578.25 19.622-4.792 5.042-5.04 5.206-12.29 4.796-19.612z" fill="#9266CC"/><path d="M364.708 40.894c-.056-1.002-.29-4.554-.336-5.32a103.9 103.9 0 01-.128-2.664c-.672-.042-4.2-.266-5.306-.326.026.88.064 1.766.112 2.652.056 1.002.29 4.554.336 5.322.11 1.828.182 3.608.162 5.312.666.042 4.188.264 5.29.324.03-1.744-.03-3.518-.13-5.3z" fill="#744EAA"/><path d="M385.162 31.654c-.84-.872-2.77-1.202-4.582.706-3.61 3.61-9.634 3.612-16.208 3.214-.768-.046-4.32-.282-5.322-.338-7.32-.41-14.572-.246-19.612 4.794-4.43 4.43-5.09 10.568-4.906 16.96 1.106.06 4.638.284 5.306.324-.196-5.51.226-10.428 3.342-13.544 3.61-3.61 9.636-3.61 16.208-3.214.766.046 4.32.28 5.322.336 7.322.41 14.572.248 19.612-4.792 1.772-1.738 1.68-3.574.84-4.446z" fill="#55ACEE"/><path d="M450 86c19.882 0 36-16.118 36-36s-16.118-36-36-36-36 16.118-36 36 16.118 36 36 36z" fill="#88C9F9"/><path d="M465.432 17.512c-2.044 1.136-3.744 3.056-6.056 2.362-3.75-1.124-8.75-3.624-12-.5s-4 6 0 5.876c4-.124 6.75-4.876 8.75-2.876 2 2 1.498 3.626-3.25 4.25C448.128 27.248 443 28 440.25 28s-3.376 1.624-1.5 3.376c1.876 1.752-1.126 1.874-4.25 3.624s.75 2.5 3.376 4 4.624-.376 5.75-2.876c1.126-2.5 5.962-5.5 7.98-5.124 2.02.376 2.02 1.376 1.644 3.124-.376 1.748 1.5 1.25 1.624-.75.124-2 2.376-3.5 4.124-3.624 1.748-.124 3.25 2.376 1.25 3.624-2 1.248-4 2.25-1.5 2.876 2.5.626 4.25 3.876 1.376 5.25S452.25 43.75 450 42.624c-2.25-1.126-7.376-2.75-8.75-1.876-1.374.874-2.124 1.78-3.75 2.39-1.624.61-8.25 3.61-8.376 7.486-.126 3.876-.248 8.252 2.376 8.376 2.624.124 9-1.624 11-3.25s4.75-1.25 5.624.624c.874 1.874.25 3-.624 6s.572 4.5 1.974 7.124c1.402 2.624 2.526 4.124 2.526 6 0 1.876 2 3.75 5 .624s5.75-9.25 7-11.5 2.25-7.25 3.75-8.25 3.876-3.376 2.124-3c-1.752.376-5.25-.124-6.124-2.624-.874-2.5-4.624-7.25-2.876-7.75 1.748-.5 3.75 2.78 4.5 4.328.75 1.548 1.75 3.422 3.25 3.922s4.75-3.346 5.75-3.922c1-.578.25-2.952-1.75-2.702s-4.624 0-4.624-1.248 2.5-2.876 4.5-2.5c2 .376 3.5 1 4.75 2.5s3.75 4.25 4.75 6 1.75 2 2.25-1.124c.332-2.076.774-3.218 1.18-4.444-2.026-11.658-9.64-21.366-19.998-26.296z" fill="#5C913B"/><path d="M628 36h44v36h-44V36z" fill="#292F33"/><path d="M630 72c0 2.208-1.194 4-2.666 4h-2.668c-1.472 0-2.666-1.792-2.666-4V36c0-2.208 1.194-4 2.666-4h2.666c1.474 0 2.668 1.792 2.668 4v36zm48 0c0 2.208-1.194 4-2.666 4h-2.668c-1.472 0-2.666-1.792-2.666-4V36c0-2.208 1.194-4 2.666-4h2.668c1.472 0 2.666 1.792 2.666 4v36zm-32 0c0 2.208-1.194 4-2.666 4h-2.666c-1.474 0-2.668-1.792-2.668-4V36c0-2.208 1.194-4 2.666-4h2.666c1.474 0 2.668 1.792 2.668 4v36zm16 0c0 2.208-1.196 4-2.668 4h-2.664c-1.472 0-2.668-1.792-2.668-4V36c0-2.208 1.196-4 2.668-4h2.664c1.472 0 2.668 1.792 2.668 4v36z" fill="#CCD6DD"/><path d="M680 74c0 2.208-1.792 4-4 4h-52c-2.208 0-4-1.792-4-4s1.792-4 4-4h52c2.208 0 4 1.792 4 4z" fill="#9AAAB4"/><path d="M684 78c0 2.208-1.792 4-4 4h-60c-2.208 0-4-1.792-4-4s1.792-4 4-4h60c2.208 0 4 1.792 4 4z" fill="#CCD6DD"/><path d="M686 81c0 1.656-1.344 3-3 3h-66a3 3 0 110-6h66c1.656 0 3 1.344 3 3z" fill="#E1E8ED"/><path d="M680 34c0-2.208-1.912-4-4.266-4H624c-2.358 0-4 1.792-4 4 0 1.502.772 2.796 2 3.48V40h8v-2h8v2h8v-2h8v2h8v-2h8v2h8v-2.624c1.198-.708 2-1.95 2-3.376z" fill="#9AAAB4"/><path d="M618 30.888c0-2.062 2.024-2.888 2.024-2.888l29.808-14 30.094 14s2.074.462 2.074 2.9V32h-64v-1.112z" fill="#CCD6DD"/><path d="M650 19.084s-20.638 9.73-22.7 10.604c-2.062.874-1.372 2.312.002 2.312h45.292c2.124 0 1.624-1.624-.062-2.5C670.844 28.624 650 19.084 650 19.084z" fill="#9AAAB4"/><path d="M682 32a2 2 0 01-2 2h-60a2 2 0 010-4l60 .012c1.106 0 2 .884 2 1.988z" fill="#CCD6DD"/><path d="M50 185c18.778 0 34-15.222 34-34s-15.222-34-34-34-34 15.222-34 34 15.222 34 34 34z" fill="#F4900C"/><path d="M50 181c18.778 0 34-15.222 34-34s-15.222-34-34-34-34 15.222-34 34 15.222 34 34 34z" fill="#FFCC4D"/><path d="M50 177c15.464 0 28-12.536 28-28s-12.536-28-28-28-28 12.536-28 28 12.536 28 28 28z" fill="#FFE8B6"/><path d="M50 175c15.464 0 28-12.536 28-28s-12.536-28-28-28-28 12.536-28 28 12.536 28 28 28z" fill="#FFAC33"/><path d="M33.086 134.712c0-1.09 1.07-1.526 1.07-1.526l15.756-7.4 15.906 7.4s1.096.244 1.096 1.534v1.282H33.086v-1.29z" fill="#FFE8B6"/><path d="M65.858 138.672c0-1.168-1.01-2.114-2.254-2.114H36.258c-1.246 0-2.114.946-2.114 2.114 0 .794.408 1.478 1.058 1.84v1.332h4.228v-1.058h4.228v1.058h4.228v-1.058h4.228v1.058h4.228v-1.058h4.228v1.058h4.23v-1.386c.634-.376 1.058-1.034 1.058-1.786zM69.028 161c0 .876-.71 1.586-1.586 1.586H32.558a1.586 1.586 0 110-3.172h34.886c.874 0 1.584.71 1.584 1.586z" fill="#F4900C"/><path d="M66.914 137.4c0 .584-.472 1.058-1.058 1.058H34.142a1.058 1.058 0 010-2.116l31.714.006a1.053 1.053 0 011.058 1.052zm-28.542 1.228H61.63V141H38.372v-2.372z" fill="#F4900C"/><path d="M39.428 154.658c0 1.168-.632 2.114-1.41 2.114h-1.41c-.778 0-1.41-.946-1.41-2.114V138.63c0-1.168.632-2.114 1.41-2.114h1.41c.778 0 1.41.946 1.41 2.114v16.028zm25.372 0c0 1.168-.63 2.114-1.41 2.114h-1.41c-.778 0-1.41-.946-1.41-2.114V138.63c0-1.168.63-2.114 1.41-2.114h1.41c.778 0 1.41.946 1.41 2.114v16.028zm-16.914 0c0 1.168-.632 2.114-1.41 2.114h-1.41c-.778 0-1.41-.946-1.41-2.114V138.63c0-1.168.632-2.114 1.41-2.114h1.41c.778 0 1.41.946 1.41 2.114v16.028zm8.456 0c0 1.168-.632 2.114-1.41 2.114h-1.408c-.778 0-1.41-.946-1.41-2.114V138.63c0-1.168.632-2.114 1.41-2.114h1.408c.778 0 1.41.946 1.41 2.114v16.028z" fill="#FFD983"/><path d="M65.858 155.714a2.113 2.113 0 01-2.114 2.114H36.258a2.113 2.113 0 110-4.228h27.486c1.166 0 2.114.946 2.114 2.114z" fill="#FFCC4D"/><path d="M67.972 157.828a2.113 2.113 0 01-2.114 2.114H34.142a2.113 2.113 0 110-4.228h31.714c1.168 0 2.116.946 2.116 2.114z" fill="#FFD983"/><path d="M69.028 159.414c0 .876-.71 1.586-1.586 1.586H32.558a1.586 1.586 0 110-3.172h34.886c.874 0 1.584.71 1.584 1.586z" fill="#FFD983"/><path d="M65.858 137.572c0-1.168-1.01-2.114-2.254-2.114H36.258c-1.246 0-2.114.946-2.114 2.114 0 .794.408 1.478 1.058 1.84v1.332h4.228v-1.058h4.228v1.058h4.228v-1.058h4.228v1.058h4.228v-1.058h4.228v1.058h4.23v-1.386c.634-.376 1.058-1.034 1.058-1.786z" fill="#FFCC4D"/><path d="M33.086 135.926c0-1.09 1.07-1.526 1.07-1.526l15.756-7.4 15.906 7.4s1.096.244 1.096 1.534v.582H33.086v-.59z" fill="#FFD983"/><path d="M50 129.686s-10.91 5.142-11.998 5.606c-1.09.462-.726 1.222.002 1.222h23.94c1.124 0 .858-.858-.034-1.322-.892-.462-11.91-5.506-11.91-5.506z" fill="#FFAC33"/><path d="M66.914 136.514c0 .584-.472 1.058-1.058 1.058H34.142a1.058 1.058 0 010-2.116l31.714.006a1.053 1.053 0 011.058 1.052z" fill="#FFD983"/><path d="M269.638 280.306c1.282-1.312 2.362-3.162 2.362-5.704 0-6.298-7.29-13.506-10-19.602-2.666-6-4.208-11.75-.166-13.376l.34-.146c1.156-.436 1.826-.94 1.826-1.478 0-.92-1.94-1.744-4.988-2.294A13.962 13.962 0 00264 227c0-7.732-6.268-14-14-14s-14 6.268-14 14c0 4.298 1.94 8.138 4.988 10.706-3.048.55-4.988 1.374-4.988 2.294 0 .538.67 1.042 1.828 1.478.112.048.212.096.338.146 4.042 1.626 2.5 7.376-.166 13.376-2.71 6.096-10 13.304-10 19.602 0 2.542 1.08 4.392 2.362 5.704-1.498.81-2.362 1.724-2.362 2.694 0 .702.466 1.374 1.278 2h41.442c.814-.626 1.28-1.298 1.28-2 0-.97-.864-1.884-2.362-2.694z" fill="#31373D"/><path d="M258.002 222.5c-.55 0-1.08-.304-1.344-.83-.06-.116-1.732-3.17-6.658-3.17s-6.596 3.054-6.666 3.186a1.505 1.505 0 01-2.016.64 1.492 1.492 0 01-.66-1.998c.098-.196 2.494-4.828 9.342-4.828 6.848 0 9.242 4.632 9.342 4.83a1.497 1.497 0 01-1.34 2.17zM258 241c-.15 0-.302-.034-.448-.106-.008-.002-1.976-.894-7.552-.894-5.578 0-7.544.892-7.564.9a1.003 1.003 0 01-1.33-.468.996.996 0 01.448-1.328c.226-.112 2.384-1.104 8.446-1.104 6.06 0 8.22.992 8.448 1.106.494.248.694.848.448 1.342-.178.35-.53.552-.896.552zm-24 41a1 1 0 01-.098-1.994C234 279.994 244.02 279 250 279c5.98 0 15.998.994 16.1 1.006a.996.996 0 01.894 1.094.996.996 0 01-1.094.894c-.1-.01-10.02-.994-15.9-.994-5.882 0-15.8.984-15.9.994l-.1.006z" fill="#66757F"/><path d="M486 167a8 8 0 01-8 8h-56a8 8 0 01-8-8v-36a8 8 0 018-8h56a8 8 0 018 8v36z" fill="#C60A1D"/><path d="M414 137h72v24h-72v-24z" fill="#FFC400"/><path d="M432 147v6a6 6 0 1012 0v-6h-12z" fill="#EA596E"/><path d="M438 145h6v6h-6v-6z" fill="#F4A2B2"/><path d="M432 145h6v6h-6v-6z" fill="#DD2E44"/><path d="M438 145c3.314 0 6-1.343 6-3s-2.686-3-6-3-6 1.343-6 3 2.686 3 6 3z" fill="#EA596E"/><path d="M438 142c3.314 0 6-.672 6-1.5s-2.686-1.5-6-1.5-6 .672-6 1.5 2.686 1.5 6 1.5z" fill="#FFAC33"/><path d="M428 145h2v14h-2v-14zm18 0h2v14h-2v-14z" fill="#99AAB5"/><path d="M426 157h6v2h-6v-2zm18 0h6v2h-6v-2zm-16-14h2v2h-2v-2zm18 0h2v2h-2v-2z" fill="#66757F"/><g clip-path="url(#clip0)"><path d="M242.268 44.672L227.42 25.71l-7.444 18.962h22.292z" fill="#F4900C"/><path d="M249.796 21.59L236.67 46.368h26.25L249.796 21.59z" fill="#F4900C"/><path d="M257.572 44.672L272.42 25.71l7.444 18.962h-22.292z" fill="#F4900C"/><path d="M271.258 40.902l-9.564-23.334-11.76 23.336-.014.006-.014-.008-11.76-23.336-9.564 23.336c-6.268-8.714-12.102-14.296-12.102-14.296s3.44 25.416 3.44 49.916h60c0-24.5 3.44-49.916 3.44-49.916s-5.834 5.582-12.102 14.296z" fill="#FFCC4D"/><path d="M249.834 61.898a7.376 7.376 0 100-14.752 7.376 7.376 0 000 14.752z" fill="#5C913B"/><path d="M266.846 59.346a4.824 4.824 0 100-9.648 4.824 4.824 0 000 9.648z" fill="#981CEB"/><path d="M279.624 58.494a3.972 3.972 0 100-7.944 3.972 3.972 0 000 7.944z" fill="#DD2E44"/><path d="M232.82 59.346a4.824 4.824 0 100-9.648 4.824 4.824 0 000 9.648z" fill="#981CEB"/><path d="M220.042 58.494a3.972 3.972 0 100-7.944 3.972 3.972 0 000 7.944z" fill="#DD2E44"/><path d="M279.92 78.522h-60a2 2 0 110-4h60c1.106 0 2 .894 2 2 0 1.106-.894 2-2 2zm0-6.972h-60a2 2 0 110-4h60c1.106 0 2 .894 2 2 0 1.106-.894 2-2 2z" fill="#FFAC33"/><path d="M216.814 29.42a2.814 2.814 0 100-5.628 2.814 2.814 0 000 5.628z" fill="#FFCC4D"/><path d="M227.42 28.094a2.384 2.384 0 100-4.768 2.384 2.384 0 000 4.768z" fill="#F4900C"/><path d="M238.146 21.136a3.568 3.568 0 100-7.135 3.568 3.568 0 000 7.135zm44.88 8.284a2.814 2.814 0 100-5.628 2.814 2.814 0 000 5.628z" fill="#FFCC4D"/><path d="M272.42 28.094a2.384 2.384 0 100-4.768 2.384 2.384 0 000 4.768z" fill="#F4900C"/><path d="M261.694 21.136a3.568 3.568 0 100-7.135 3.568 3.568 0 000 7.135z" fill="#FFCC4D"/><path d="M249.796 25.158a3.568 3.568 0 100-7.135 3.568 3.568 0 000 7.135z" fill="#F4900C"/></g><path d="M70.186 236.8c.41-.742.78-1.532 1.096-2.366 2.418-6.374.934-12.846-3.316-14.458-3.176-1.204-6.998.652-9.736 4.328-.794-2.282-1.096-4.418-.184-5.304H41.59c.91.886.608 3.022-.186 5.304-2.738-3.676-6.56-5.532-9.736-4.328-4.25 1.612-5.736 8.084-3.318 14.458.316.836.688 1.624 1.096 2.366-2.368 2.332-4.314 5.758-4.314 11.126 0 12.34 16.454 26.78 18.512 30.894-.252.09 12.594.09 12.342 0 2.06-4.116 18.514-18.554 18.514-30.896 0-5.366-1.946-8.792-4.314-11.124zm-32.71-5.372c-.764.764-2.666 1.536-4.754 2.836a9.283 9.283 0 01-.598-1.262c-1.234-3.248-.474-6.544 1.69-7.366 1.862-.708 4.152.658 5.544 3.118-.67 1.17-1.346 2.138-1.882 2.674zm30.034 1.574c-.17.45-.376.866-.598 1.264-2.088-1.3-3.99-2.072-4.754-2.836-.536-.536-1.212-1.506-1.88-2.674 1.39-2.46 3.682-3.826 5.544-3.118 2.162.82 2.922 4.116 1.688 7.364z" fill="#C1694F"/><path d="M51.592 276.494H47.76c-4.114 0-10.284 1.942-10.284 6.054 0 2.058 7.884 2.286 12.17 2.286h.064c4.286 0 12.168-.226 12.168-2.286-.002-4.112-6.17-6.054-10.286-6.054zm22.908-28.57c0-5.222-1.846-8.598-4.126-10.924H29.26c-2.28 2.326-4.126 5.704-4.126 10.924 0 2.962.962 6.044 2.432 9.076h44.502c1.47-3.032 2.432-6.114 2.432-9.076zm-12.624-32.178c0-2.022-7.616-2.318-11.944-2.328H49.7c-4.328.01-11.944.304-11.944 2.328 0 4.026 7.592 5.884 11.774 5.964h.57c4.186-.082 11.776-1.94 11.776-5.964z" fill="#272B2B"/><path d="M40.562 253H35.42c-.568 0-1.028-.432-1.028-1 0-.568.46-1 1.028-1h5.08v-8h-8v2h4.976c.568 0 1.028.432 1.028 1 0 .568-.46 1-1.028 1h-4.852c-1.082 0-2.124-.292-2.124-1.542v-2.63c0-1.452 1.208-1.828 1.776-1.828h8.286c1.396 0 1.938.958 1.938 1.83v8.228c0 1.234-.916 1.942-1.938 1.942zm28 0h-5.144c-.566 0-1.028-.432-1.028-1 0-.568.462-1 1.028-1H68.5v-8h-8v2h4.976c.566 0 1.028.432 1.028 1 0 .568-.462 1-1.028 1h-4.852c-1.082 0-2.124-.292-2.124-1.542v-2.63c0-1.452 1.208-1.828 1.778-1.828h8.286c1.394 0 1.936.958 1.936 1.83v8.228c0 1.234-.916 1.942-1.938 1.942zm-14 0h-5.144c-.566 0-1.028-.432-1.028-1 0-.568.462-1 1.028-1H54.5v-8h-8v2h4.976c.566 0 1.028.432 1.028 1 0 .568-.462 1-1.028 1h-4.852c-1.082 0-2.124-.292-2.124-1.542v-2.63c0-1.452 1.208-1.828 1.778-1.828h8.286c1.394 0 1.936.958 1.936 1.83v8.228c0 1.234-.916 1.942-1.938 1.942z" fill="#C1694F"/><path d="M174 285v-2c0-6.626-3.374-12-10-12h-28c-6.626 0-10 5.374-10 12v2h48z" fill="#DD2E44"/><path d="M168 225c0-6.6-5.4-12-12-12h-12c-6.6 0-12 5.4-12 12v24c0 9.942 8.058 10 18 10s18-.058 18-10v-24z" fill="#292F33"/><path d="M143.252 271.912c2.688 1.952 4.39 2.388 6.72 2.388s4.032-.436 6.72-2.388v-5.876H143.25v5.876h.002z" fill="#FFDC5D"/><path d="M143.24 268.632c1.876 2.118 4.2 2.69 6.728 2.69 2.528 0 4.852-.574 6.728-2.69v-5.382H143.24v5.382z" fill="#F9CA55"/><path d="M165.13 253.16c0-2.232-1.13-4.042-2.526-4.042-.128 0-.25.03-.372.06-.018-.06-.032-.12-.052-.178h-24.414c-.02.058-.032.118-.052.178a1.57 1.57 0 00-.372-.06c-1.396 0-2.526 1.81-2.526 4.042 0 2.05.958 3.726 2.194 3.988.978 7.468 6.402 13.19 12.964 13.19s11.986-5.722 12.964-13.19c1.236-.264 2.192-1.938 2.192-3.988z" fill="#FFDC5D"/><path d="M149.974 265.286c-4.246 0-5.548-1.088-5.768-1.306a1.01 1.01 0 011.39-1.464c.08.058 1.112.752 4.376.752 3.39 0 4.372-.748 4.382-.754.394-.392 1.012-.374 1.408.02.394.394.374 1.054-.022 1.448-.218.216-1.522 1.304-5.766 1.304zm1.156-6.246h-2.312a1.16 1.16 0 01-1.156-1.156c0-.636.52-1.156 1.156-1.156h2.312c.636 0 1.156.52 1.156 1.156a1.16 1.16 0 01-1.156 1.156z" fill="#C1694F"/><path d="M143.808 254.8a1.547 1.547 0 01-1.542-1.542v-1.542c0-.848.694-1.542 1.542-1.542.848 0 1.542.694 1.542 1.542v1.542a1.55 1.55 0 01-1.542 1.542zm12.33 0a1.547 1.547 0 01-1.542-1.542v-1.542c0-.848.694-1.542 1.542-1.542.848 0 1.542.694 1.542 1.542v1.542c0 .848-.694 1.542-1.542 1.542z" fill="#662113"/><path d="M139.156 273.922l-9.306 1.474a1.002 1.002 0 01-1.144-.832l-.312-1.976a1.002 1.002 0 01.832-1.144l9.306-1.474a1.002 1.002 0 011.144.832l.312 1.976a1.003 1.003 0 01-.832 1.144zm21.74 0l9.306 1.474a1.002 1.002 0 001.144-.832l.312-1.976a1.002 1.002 0 00-.832-1.144l-9.306-1.474a1.002 1.002 0 00-1.144.832l-.312 1.976a1.003 1.003 0 00.832 1.144z" fill="#292F33"/><path d="M137.75 249s-.348 18 12.226 18c12.574 0 12.274-18 12.274-18H164s-.614 20-14 20-14-20-14-20h1.75z" fill="#99AAB5"/><path d="M149 275h2v10h-2v-10z" fill="#F5F8FA"/><path d="M156.76 268.632c0 3.15-4.472 4.368-6.76 4.368-2.288 0-6.76-1.218-6.76-4.368 0 0-1.24-.254-1.24 2.368s3.776 6 8 6 8-3.378 8-6-1.24-2.368-1.24-2.368z" fill="#292F33"/><path d="M350 285c19.882 0 36-16.118 36-36s-16.118-36-36-36-36 16.118-36 36 16.118 36 36 36z" fill="#88C9F9"/><path d="M365.432 216.512c-2.044 1.136-3.744 3.056-6.056 2.362-3.75-1.124-8.75-3.624-12-.5s-4 6 0 5.876c4-.124 6.75-4.876 8.75-2.876 2 2 1.498 3.626-3.25 4.25-4.748.624-9.876 1.376-12.626 1.376s-3.376 1.624-1.5 3.376c1.876 1.752-1.126 1.874-4.25 3.624s.75 2.5 3.376 4 4.624-.376 5.75-2.876c1.126-2.5 5.962-5.5 7.98-5.124 2.02.376 2.02 1.376 1.644 3.124-.376 1.748 1.5 1.25 1.624-.75.124-2 2.376-3.5 4.124-3.624 1.748-.124 3.25 2.376 1.25 3.624-2 1.248-4 2.25-1.5 2.876 2.5.626 4.25 3.876 1.376 5.25s-7.874 2.25-10.124 1.124c-2.25-1.126-7.376-2.75-8.75-1.876-1.374.874-2.124 1.78-3.75 2.39-1.624.61-8.25 3.61-8.376 7.486-.126 3.876-.248 8.252 2.376 8.376 2.624.124 9-1.624 11-3.25s4.75-1.25 5.624.624c.874 1.874.25 3-.624 6s.572 4.5 1.974 7.124c1.402 2.624 2.526 4.124 2.526 6 0 1.876 2 3.75 5 .624s5.75-9.25 7-11.5 2.25-7.25 3.75-8.25 3.876-3.376 2.124-3c-1.752.376-5.25-.124-6.124-2.624-.874-2.5-4.624-7.25-2.876-7.75 1.748-.5 3.75 2.78 4.5 4.328.75 1.548 1.75 3.422 3.25 3.922s4.75-3.346 5.75-3.922c1-.578.25-2.952-1.75-2.702s-4.624 0-4.624-1.248 2.5-2.876 4.5-2.5c2 .376 3.5 1 4.75 2.5s3.75 4.25 4.75 6 1.75 2 2.25-1.124c.332-2.076.774-3.218 1.18-4.444-2.026-11.658-9.64-21.366-19.998-26.296z" fill="#5C913B"/><path d="M514 131.118V139h11.256L514 131.118zM523.328 175H540v-11.674L523.328 175zM560 163.328V175h16.67L560 163.328zM514 159v7.882L525.26 159H514zm62.674-36H560v11.674L576.674 123zM586 166.884V159h-11.262L586 166.884zM586 139v-7.882L574.742 139H586zm-46-16h-16.672L540 134.674V123z" fill="#00247D"/><path d="M564.28 159l19.424 13.602c.942-.958 1.616-2.164 1.98-3.498L571.254 159h-6.974zM540 159h-4.282l-19.422 13.6a7.982 7.982 0 003.876 2.17L540 160.886V159zm20-20h4.282l19.422-13.6a7.976 7.976 0 00-3.874-2.17L560 137.114V139zm-24.282 0l-19.422-13.6c-.942.96-1.616 2.164-1.982 3.498L528.744 139h6.974z" fill="#CF1B2B"/><path d="M586 155h-30v20h4v-11.672L576.67 175H578a7.98 7.98 0 005.704-2.398L564.28 159h6.974l14.43 10.104c.186-.674.316-1.372.316-2.104v-.116L574.738 159H586v-4zm-72 0v4h11.26L514 166.882V167c0 2.182.878 4.156 2.296 5.6l19.422-13.6H540v1.886l-19.828 13.882c.588.14 1.196.232 1.828.232h1.328L540 163.326V175h4v-20h-30zm72-24a7.966 7.966 0 00-2.296-5.6L564.282 139H560v-1.886l19.83-13.884A8.002 8.002 0 00578 123h-1.326L560 134.674V123h-4v20h30v-4h-11.258L586 131.118V131zm-46-8v11.674L523.328 123H522a7.97 7.97 0 00-5.704 2.4l19.422 13.6h-6.974l-14.43-10.102c-.184.674-.314 1.37-.314 2.102v.118L525.256 139H514v4h30v-20h-4z" fill="#EEE"/><path d="M556 143v-20h-12v20h-30v12h30v20h12v-20h30v-12h-30z" fill="#CF1B2B"/><path d="M121.846 158.846a2 2 0 11-3.694-1.538l9.234-25.076a2 2 0 113.692 1.538l-9.232 25.076z" fill="#66757F"/><path d="M141.846 157.308a2.002 2.002 0 01-3.694 1.538l-9.23-25.076a2.002 2.002 0 013.694-1.538l9.23 25.076zm20.002 1.538a2 2 0 11-3.694-1.538l9.232-25.078a2 2 0 013.692 1.54l-9.23 25.076z" fill="#66757F"/><path d="M181.846 157.308a2 2 0 11-3.694 1.538l-9.23-25.076a2 2 0 113.692-1.538l9.232 25.076z" fill="#66757F"/><path d="M143.714 157h-27.428a2.285 2.285 0 00-2.286 2.286c0 5.048 7.164 9.142 16 9.142s16-4.094 16-9.142a2.285 2.285 0 00-2.286-2.286zM162 181h-24a2 2 0 01-2-2c0-4.418 6.268-8 14-8s14 3.582 14 8c0 1.106-.894 2-2 2zm21.714-24h-27.428a2.284 2.284 0 00-2.286 2.286c0 5.048 7.162 9.142 16 9.142 8.838 0 16-4.094 16-9.142a2.284 2.284 0 00-2.286-2.286z" fill="#FFAC33"/><path d="M152 119a2 2 0 10-4 0v54a2 2 0 104 0v-54z" fill="#FFAC33"/><path d="M150 125a4 4 0 100-8 4 4 0 000 8zm-20 12a4 4 0 100-8 4 4 0 000 8zm40 0a4 4 0 100-8 4 4 0 000 8z" fill="#FFAC33"/><path d="M170 133c0 2.208 0 0-20 0s-20 2.208-20 0 6-8 20-8 20 5.792 20 8z" fill="#FFAC33"/><path d="M252.938 129.638l-7.708-9.342a2.018 2.018 0 00-2.842-.272l-6.752 5.57 10.276 12.456 6.752-5.57c.862-.71.984-1.982.274-2.842z" fill="#CCD6DD"/><path d="M273.086 163.042l-12.456-10.276s-4.79 6.264-10.012 12.304c-3.972 4.596-12.186 4.43-16.812-.196-4.626-4.626-4.79-12.84-.196-16.812 6.04-5.222 12.304-10.012 12.304-10.012l-10.276-12.456s-10.244 7.856-13.226 10.86c-10.936 11.016-10.974 28.836.002 39.812 10.976 10.976 28.796 10.936 39.812.002 3.004-2.982 10.86-13.226 10.86-13.226z" fill="#BE1931"/><path d="M269.042 145.742l9.342 7.708c.86.71.982 1.982.272 2.842l-5.57 6.752-12.456-10.276 5.57-6.752a2.017 2.017 0 012.842-.274z" fill="#CCD6DD"/><path d="M261.434 121.446l-3.514-3.586 3.872-3.79c.012-.012.008-.03.018-.042.032-.038.042-.078.054-.126.014-.048.026-.088.02-.136-.002-.016.01-.03.008-.046-.008-.034-.04-.048-.056-.076-.016-.032-.01-.07-.036-.096-.012-.012-.03-.008-.044-.018-.04-.032-.084-.042-.134-.056-.044-.012-.082-.024-.126-.02-.016.002-.032-.012-.048-.008l-10.272 2.514a.375.375 0 00-.268.258.372.372 0 00.092.36l3.514 3.588-3.87 3.792c-.012.012-.008.03-.018.042-.032.038-.042.08-.056.128-.014.048-.026.086-.02.134.002.016-.012.03-.008.048.012.05.046.086.076.124.01.014.006.032.018.046l.022.022c.084.072.19.088.294.072.014-.002.022.012.036.008l10.268-2.514a.375.375 0 00.178-.622zm-4.31-3.322l.01-.01-.01.01zm28.532 25.086l-4.11-2.886 3.114-4.434c.01-.014.002-.03.01-.044.024-.044.026-.084.03-.134s.01-.09-.004-.138c-.004-.016.006-.03-.002-.046-.014-.032-.048-.04-.068-.066-.022-.028-.024-.064-.054-.086-.014-.01-.032-.002-.046-.01-.046-.024-.09-.026-.142-.03-.046-.004-.086-.008-.128.004-.016.004-.032-.006-.048.002l-9.638 4.346a.374.374 0 00-.216.302.378.378 0 00.156.338l4.11 2.886-3.112 4.434c-.01.014-.002.03-.01.044-.024.044-.026.086-.03.136-.004.048-.01.09.004.136.004.016-.006.032.002.048.022.046.062.076.098.108.012.012.012.03.026.04l.026.016a.349.349 0 00.302.016c.012-.004.024.008.036.002l9.636-4.348a.374.374 0 00.216-.302.387.387 0 00-.158-.334zm-4.844-2.48l.008-.012-.008.012z" fill="#FFAC33"/><path d="M614 167a8 8 0 008 8h56a8 8 0 008-8v-8h-72v8z" fill="#FFCD05"/><path d="M614 141h72v18h-72v-18z" fill="#ED1F24"/><path d="M678 123h-56a8 8 0 00-8 8v10h72v-10a8 8 0 00-8-8z" fill="#141414"/><defs><clipPath id="clip0"><path fill="#fff" transform="translate(214 14)" d="M0 0h71.84v64.522H0z"/></clipPath></defs></svg>