<svg width="52" height="82" viewBox="0 0 52 82" fill="none" xmlns="http://www.w3.org/2000/svg">
<path fill-rule="evenodd" clip-rule="evenodd" d="M5.97376 40.542C5.86734 41.2815 5.81325 42.0302 5.81325 42.7835C5.81325 47.4993 7.92605 51.9747 11.726 55.3095C15.5259 58.6442 20.6255 60.4984 26.0009 60.4984C31.3745 60.4984 36.4759 58.6442 40.274 55.3095C44.0739 51.9747 46.1867 47.4993 46.1867 42.7835C46.1867 42.0302 46.1327 41.2815 46.0262 40.542H5.97376ZM18.4447 44.8352C19.6747 44.8352 20.6709 45.7095 20.6709 46.7889C20.6709 47.8683 19.6747 48.7426 18.4447 48.7426C17.2147 48.7426 16.2185 47.8683 16.2185 46.7889C16.2185 45.7095 17.2147 44.8352 18.4447 44.8352ZM33.154 42.0165C34.6056 42.0165 35.7815 43.0484 35.7815 44.3223C35.7815 45.5962 34.6056 46.6281 33.154 46.6281C31.7025 46.6281 30.5266 45.5962 30.5266 44.3223C30.5266 43.0484 31.7025 42.0165 33.154 42.0165ZM29.8322 52.33C30.8197 52.33 31.6205 53.0327 31.6205 53.8993C31.6205 54.7659 30.8197 55.4687 29.8322 55.4687C28.8447 55.4687 28.0439 54.7659 28.0439 53.8993C28.0439 53.0327 28.8447 52.33 29.8322 52.33ZM36.024 4.05435V21.7324C40.5811 23.4044 44.477 26.1788 47.2772 29.6712C50.2536 33.3841 52 37.907 52 42.7835C52 49.084 49.0899 54.7874 44.3845 58.9167C39.6809 63.0461 33.1802 65.6 26.0009 65.6C18.8198 65.6 12.3209 63.0461 7.6155 58.9167C2.91012 54.7874 0 49.084 0 42.7835C0 37.907 1.74816 33.3841 4.72283 29.6712C7.52478 26.1788 11.4206 23.4044 15.976 21.7324V4.05435H13.0781V0H38.9219V4.05435H36.024ZM32.266 5.66966H19.734V22.8532V24.0061L18.4866 24.3996C14.1371 25.7684 10.4105 28.2993 7.79171 31.5652C5.25147 34.7361 3.75977 38.6052 3.75977 42.7835C3.75977 48.173 6.24768 53.0526 10.2726 56.5849C14.2976 60.1171 19.8579 62.302 26.0009 62.302C32.1421 62.302 37.7024 60.1171 41.7274 56.5849C45.7523 53.0526 48.242 48.173 48.242 42.7835C48.242 38.6052 46.7485 34.7361 44.2083 31.5652C41.5895 28.2993 37.8629 25.7684 33.5134 24.3996L32.266 24.0061V22.8532V5.66966ZM24.9105 21.9009C25.9084 21.9009 26.7179 22.6098 26.7179 23.4855C26.7179 24.3613 25.9084 25.0718 24.9105 25.0718C23.9125 25.0718 23.1047 24.3613 23.1047 23.4855C23.1047 22.6098 23.9125 21.9009 24.9105 21.9009ZM23.6874 31.7657C25.5822 31.7657 27.1192 33.1131 27.1192 34.7774C27.1192 36.4402 25.5822 37.7876 23.6874 37.7876C21.7927 37.7876 20.2574 36.4402 20.2574 34.7774C20.2574 33.1131 21.7927 31.7657 23.6874 31.7657Z" fill="#FF5252"/>
</svg>
